<ttFont>
          <CharString index="0">
            -41 33 -33 41 41 33 33 41 41 -33 33 -41 -41 -33 -33 -41 vhcurveto
            return
          </CharString>
          <CharString index="1">
            rmoveto
            132 -8 -111 90 -142 hhcurveto
            -145 -137 -107 -165 -166 111 -117 169 77 84 30 79 75 hvcurveto
            -86 93 rlineto
            -49 -32 -60 -30 -56 hhcurveto
            -37 -36 13 30 -24 hvcurveto
            358 148 rlineto
            -256 111 rmoveto
            43 42 -15 -44 10 hvcurveto
            -234 -95 rlineto
            -1 6 0 6 6 vvcurveto
            91 73 45 67 vhcurveto
            return
          </CharString>
          <CharString index="2">
            159 vstem
            -106 callgsubr
            return
          </CharString>
          <CharString index="3">
            -79 callgsubr
            hlineto
            204 -113 106 -184 -186 -114 -106 -210 vhcurveto
            156 5 -88 callsubr
            return
          </CharString>
          <CharString index="4">
            hstem
            5 callgsubr
            415 -105 callsubr
            return
          </CharString>
          <CharString index="5">
            hstem
            -24 callgsubr
            6 callgsubr
            -105 callgsubr
            return
          </CharString>
          <CharString index="6">
            rmoveto
            160 -82 72 -220 vhcurveto
            -265 -34 callgsubr
            223 108 hlineto
            155 -223 rlineto
            192 hlineto
            -177 250 rlineto
            86 32 47 67 118 vvcurveto
            -159 hmoveto
            -70 -25 -39 -113 vhcurveto
            -114 207 117 hlineto
            99 36 -22 -76 hvcurveto
            return
          </CharString>
          <CharString index="7">
            -56 callgsubr
            -103 callsubr
            return
          </CharString>
          <CharString index="8">
            -33 callgsubr
            653 467 -101 callsubr
            return
          </CharString>
          <CharString index="9">
            16 -26 -19 11 -31 hhcurveto
            -66 -50 -59 -102 hvcurveto
            106 hlineto
            44 -1 19 8 12 hhcurveto
            return
          </CharString>
          <CharString index="10">
            rmoveto
            113 -158 rlineto
            187 hlineto
            113 158 rlineto
            -123 hlineto
            -84 -81 -83 81 rlineto
            endchar
          </CharString>
          <CharString index="11">
            -35 -65 callgsubr
            hstemhm
            65 -46 callgsubr
            hintmask 10111000
            -95 callsubr
            hintmask 01111000
            -71 -78 callsubr
            return
          </CharString>
          <CharString index="12">
            418 248 rmoveto
            -78 callgsubr
            -326 vlineto
            -156 103 -64 101 56 55 25 54 38 vhcurveto
            return
          </CharString>
          <CharString index="13">
            -84 -64 callsubr
            527 671 -86 callgsubr
            return
          </CharString>
          <CharString index="14">
            -49 39 -39 49 49 39 39 49 return
          </CharString>
          <CharString index="15">
            431 84 rmoveto
            -51 callsubr
            -129 -56 rlineto
            -69 callsubr
            452 -151 -244 vlineto
            -78 -37 -43 -67 -75 -23 41 105 vhcurveto
            return
          </CharString>
          <CharString index="16">
            -116 137 139 134 404 -20 21 -20 hstemhm
            74 156 256 156 hintmask 11011100
            67 78 rmoveto
            -130 45 105 -64 126 hhcurveto
            178 121 126 210 hvcurveto
            479 -156 -262 vlineto
            -91 -65 -52 -66 -86 -39 60 113 vhcurveto
            hintmask 11101100
            231 -156 -252 vlineto
            -192 116 -94 135 76 36 18 37 53 vhcurveto
            0 2 -9 -15 vvcurveto
            -90 -46 -80 -103 -73 -43 53 60 -21 vhcurveto
            return
          </CharString>
          <CharString index="17">
            hstem
            66 161 203 161 vstem
            227 513 rmoveto
            36 31 29 53 53 65 -16 -53 70 vhcurveto
            79 114 rlineto
            60 -71 -99 32 -92 hhcurveto
            -132 -118 -66 -146 -134 85 -47 150 -36 hvcurveto
            106 -26 23 -21 -40 vvcurveto
            -42 -35 -27 -57 -73 -65 37 62 -71 vhcurveto
            -93 -114 rlineto
            -82 89 104 -41 106 hhcurveto
            151 105 81 137 121 -78 56 -149 37 hvcurveto
            -110 27 -27 19 43 vvcurveto
            return
          </CharString>
          <CharString index="18">
            -56 callsubr
            -401 -134 -72 callsubr
            return
          </CharString>
          <CharString index="19">
            rmoveto
            112 54 60 88 88 54 -64 -113 vhcurveto
            -97 -284 vlineto
            return
          </CharString>
          <CharString index="20">
            206 -161 155 -206 -68 callsubr
            return
          </CharString>
          <CharString index="21">
            52 21 -34 callsubr
            -99 callsubr
            return
          </CharString>
          <CharString index="22">
            450 134 -89 callsubr
            return
          </CharString>
          <CharString index="23">
            -61 callgsubr
            373 136 -71 callgsubr
            return
          </CharString>
          <CharString index="24">
            21 -21 571 144 -72 56 hstemhm
            91 -32 callgsubr
            hintmask 11011000
            399 571 -75 callgsubr
            hintmask 10111000
            -49 callsubr
            return
          </CharString>
          <CharString index="25">
            65 -127 -177 rlineto
            return
          </CharString>
          <CharString index="26">
            -84 callgsubr
            hintmask 01101100
            -44 -78 callsubr
            hintmask 10011100
            -102 callgsubr
            return
          </CharString>
          <CharString index="27">
            221 300 -28 callgsubr
            -304 150 327 vlineto
            139 -93 81 -103 -54 -54 -19 -50 -49 vhcurveto
            return
          </CharString>
          <CharString index="28">
            hstem
            44 585 vstem
            81 294 rmoveto
            113 hlineto
            -150 -187 rlineto
            -107 585 136 -371 vlineto
            127 158 rlineto
            189 100 -109 hlineto
            158 197 rlineto
            108 -567 -135 354 vlineto
            -136 -170 rlineto
            -193 hlineto
            return
          </CharString>
          <CharString index="29">
            151 538 -151 vlineto
            return
          </CharString>
          <CharString index="30">
            -110 -23 39 40 48 50 10 49 48 59 -19 -22 49 hvcurveto
            return
          </CharString>
          <CharString index="31">
            -87 callgsubr
            -30 callgsubr
            hintmask 10011100
            return
          </CharString>
          <CharString index="32">
            rmoveto
            -104 callgsubr
            return
          </CharString>
          <CharString index="33">
            82 hmoveto
            -104 callsubr
            return
          </CharString>
          <CharString index="34">
            hstem
            335 -10 callgsubr
            109 564 rmoveto
            226 -428 hlineto
            -72 -49 -32 -57 -51 -44 31 47 -35 vhcurveto
            -97 -107 rlineto
            -89 71 88 -30 83 hhcurveto
            123 125 73 176 hvcurveto
            565 -383 vlineto
            return
          </CharString>
          <CharString index="35">
            120 -431 -120 -134 401 hlineto
            return
          </CharString>
          <CharString index="36">
            699 5 callsubr
            hlineto
            -502 -699 rlineto
            172 hlineto
            363 83 -77 callgsubr
            return
          </CharString>
          <CharString index="37">
            rmoveto
            -73 -87 rlineto
            -75 vlineto
            8 17 22 4 20 hhcurveto
            39 36 -15 -33 -35 -26 -14 -29 -40 -27 13 30 -40 hvcurveto
            -46 -83 rlineto
            -36 52 55 -18 46 hhcurveto
            89 74 52 93 55 -33 53 -65 16 hvcurveto
            return
          </CharString>
          <CharString index="38">
            -117 45 97 -61 119 hhcurveto
            151 115 105 194 hvcurveto
            return
          </CharString>
          <CharString index="39">
            -206 -161 -155 -206 return
          </CharString>
          <CharString index="40">
            407 138 rmoveto
            -108 -94 82 131 140 103 75 110 66 67 -29 -63 51 hvcurveto
            97 110 rlineto
            70 -62 -85 61 -141 -23 callsubr
            return
          </CharString>
          <CharString index="41">
            -156 -96 -81 -110 -48 15 -55 51 -45 hvcurveto
            return
          </CharString>
          <CharString index="42">
            -20 hstem
            71 6 callgsubr
            222 -13 callgsubr
            -151 -517 hlineto
            -122 87 -68 96 48 53 20 44 48 vhcurveto
            -56 105 rlineto
            -25 -19 -28 -13 -24 hhcurveto
            -28 -26 22 44 hvcurveto
            return
          </CharString>
          <CharString index="43">
            -60 callsubr
            -39 callsubr
            hintmask 11110000
            return
          </CharString>
          <CharString index="44">
            rmoveto
            -151 hlineto
            -122 -184 122 -185 -22 callsubr
            -118 185 rlineto
            return
          </CharString>
          <CharString index="45">
            rmoveto
            -59 48 -48 59 59 48 48 59 59 -48 48 -59 -59 -48 -48 -59 vhcurveto
            72 hmoveto
            -54 callsubr
          </CharString>
          <CharString index="46">
            71 538 -50 callgsubr
            return
          </CharString>
          <CharString index="47">
            -7 141 166 134 137 144 return
          </CharString>
          <CharString index="48">
            -154 120 -123 164 return
          </CharString>
          <CharString index="49">
            200 rmoveto
            0 -53 -75 -82 -70 -72 47 98 96 71 49 73 48 54 -22 -43 36 vhcurveto
            78 102 rlineto
            65 -63 -85 30 -74 hhcurveto
            -148 -137 -107 -172 return
          </CharString>
          <CharString index="50">
            87 21 -21 164 138 274 return
          </CharString>
          <CharString index="51">
            rmoveto
            -125 431 125 134 return
          </CharString>
          <CharString index="52">
            -85 -62 -63 -78 -77 62 -63 85 hvcurveto
            return
          </CharString>
          <CharString index="53">
            19 16 16 19 19 16 -16 -19 -19 -16 -16 -19 -19 -16 16 19 vhcurveto
            endchar
          </CharString>
          <CharString index="54">
            -64 156 699 -156 -373 vlineto
            return
          </CharString>
          <CharString index="55">
            13 24 -17 -11 19 hvcurveto
            return
          </CharString>
          <CharString index="56">
            -105 7 -57 -63 -74 hhcurveto
            -60 -44 35 71 -26 hvcurveto
            return
          </CharString>
          <CharString index="57">
            109 446 -41 callgsubr
            return
          </CharString>
          <CharString index="58">
            56 -32 callsubr
            389 vlineto
            122 64 60 88 vhcurveto
            return
          </CharString>
          <CharString index="59">
            rmoveto
            -23 -18 19 30 30 18 21 23 return
          </CharString>
          <CharString index="60">
            125 90 101 117 return
          </CharString>
          <CharString index="61">
            -98 callsubr
            hintmask 11011001
            -16 callgsubr
          </CharString>
          <CharString index="62">
            463 rmoveto
            -486 229 rlineto
            -147 vlineto
            321 -148 -321 -152 rlineto
            -148 vlineto
            486 229 rlineto
            return
          </CharString>
          <CharString index="63">
            -10 rmoveto
            -44 -21 -18 -25 -23 -25 13 22 -19 vhcurveto
            -69 -111 -36 callsubr
            return
          </CharString>
          <CharString index="64">
            150 155 vlineto
            49 51 137 -206 rlineto
            178 hlineto
            return
          </CharString>
          <CharString index="65">
            -21 36 25 -15 41 hhcurveto
            88 66 77 137 hvcurveto
            -141 hlineto
            -58 2 -26 -11 -16 hhcurveto
            -17 -32 21 16 -26 hvcurveto
            return
          </CharString>
          <CharString index="66">
            -47 callgsubr
            -294 150 327 vlineto
            139 -94 81 -103 -54 -56 -22 -47 -46 vhcurveto
            return
          </CharString>
          <CharString index="67">
            -8 128 299 128 return
          </CharString>
          <CharString index="68">
            hstemhm
            47 160 -129 164 return
          </CharString>
          <CharString index="69">
            21 -21 538 -20 return
          </CharString>
          <CharString index="70">
            -177 rlineto
            endchar
          </CharString>
          <CharString index="71">
            rlineto
            -44 48 53 -20 49 hhcurveto
            95 87 68 122 hvcurveto
            return
          </CharString>
          <CharString index="72">
            -212 128 124 134 364 -20 21 -20 return
          </CharString>
          <CharString index="73">
            -21 223 135 207 134 return
          </CharString>
          <CharString index="74">
            rmoveto
            26 -52 -85 18 -60 hhcurveto
            return
          </CharString>
          <CharString index="75">
            -156 -34 callgsubr
            return
          </CharString>
          <CharString index="76">
            -60 callgsubr
            hstem
            82 156 284 -10 callgsubr
            return
          </CharString>
          <CharString index="77">
            -150 -538 return
          </CharString>
          <CharString index="78">
            -13 -20 -9 -21 -25 vvcurveto
            -53 38 -29 44 return
          </CharString>
          <CharString index="79">
            -9 -173 -21 186 128 301 return
          </CharString>
          <CharString index="80">
            hstemhm
            -31 callgsubr
            return
          </CharString>
          <CharString index="81">
            379 -25 callsubr
            -155 -82 callsubr
            return
          </CharString>
          <CharString index="82">
            611 -74 callgsubr
            return
          </CharString>
          <CharString index="83">
            -9 -8 128 -120 120 301 126 195 -20 hstemhm
            return
          </CharString>
          <CharString index="84">
            hhcurveto
            -204 -163 -155 -207 return
          </CharString>
          <CharString index="85">
            rlineto
            151 hlineto
            return
          </CharString>
          <CharString index="86">
            771 -74 callgsubr
            -155 -82 callsubr
            return
          </CharString>
          <CharString index="87">
            119 vstem
            71 431 -19 callgsubr
            return
          </CharString>
          <CharString index="88">
            hmoveto
            538 -30 callsubr
            vlineto
            return
          </CharString>
          <CharString index="89">
            106 173 106 return
          </CharString>
          <CharString index="90">
            -250 rmoveto
            126 hlineto
            80 195 rlineto
            -141 hlineto
            return
          </CharString>
          <CharString index="91">
            -84 -60 callsubr
            return
          </CharString>
          <CharString index="92">
            rmoveto
            -84 -68 vlineto
            146 244 rlineto
            -110 hlineto
            return
          </CharString>
          <CharString index="93">
            98 40 75 93 vhcurveto
            29 hlineto
            return
          </CharString>
          <CharString index="94">
            156 vstem
            return
          </CharString>
          <CharString index="95">
            -301 -134 113 665 113 hstem
            return
          </CharString>
          <CharString index="96">
            -20 hstem
            -31 callgsubr
            return
          </CharString>
          <CharString index="97">
            0 136 158 100 170 135 return
          </CharString>
          <CharString index="98">
            213 703 rmoveto
            -82 hlineto
            -73 -106 rlineto
            return
          </CharString>
          <CharString index="99">
            148 hstemhm
            return
          </CharString>
          <CharString index="100">
            -21 430 108 190 134 return
          </CharString>
          <CharString index="101">
            -236 99 -46 -21 223 -21 return
          </CharString>
          <CharString index="102">
            rmoveto
            -123 487 123 vlineto
            return
          </CharString>
          <CharString index="103">
            0 178 -165 -21 106 80 return
          </CharString>
          <CharString index="104">
            130 196 -20 hstem
            193 return
          </CharString>
          <CharString index="105">
            -116 148 532 134 return
          </CharString>
          <CharString index="106">
            -234 99 -46 -21 133 69 return
          </CharString>
          <CharString index="107">
            -62 -50 -66 -29 -72 hhcurveto
            endchar
          </CharString>
          <CharString index="108">
            165 20 165 return
          </CharString>
          <CharString index="109">
            625 269 rmoveto
            return
          </CharString>
          <CharString index="110">
            21 -21 539 return
          </CharString>
          <CharString index="111">
            60 369 hstem
            return
          </CharString>
          <CharString index="112">
            rmoveto
            -171 return
          </CharString>
        <CharString name=".notdef">
          -411 endchar
        </CharString>
        <CharString name="A">
          87 22 -21 150 104 412 -20 hstem
          -74 callsubr
          endchar
        </CharString>
        <CharString name="AE">
          348 0 137 14 141 -12 131 151 137 hstemhm
          445 166 hintmask 10111000
          960 -13 callgsubr
          -617 hlineto
          -359 -699 rlineto
          184 hlineto
          hintmask 11011000
          79 151 rlineto
          198 hlineto
          hintmask 10111000
          -151 526 137 -360 143 313 131 -313 151 349 vlineto
          hintmask 11011000
          -515 -270 rmoveto
          -127 hlineto
          127 246 rlineto
          endchar
        </CharString>
        <CharString name="Aacute">
          -31 callsubr
          439 -21 callsubr
          -214 -771 rmoveto
          -104 callsubr
          endchar
        </CharString>
        <CharString name="Acircumflex">
          -60 callgsubr
          54 158 hstem
          82 156 284 -10 callgsubr
          294 -70 callgsubr
          -89 -769 rmoveto
          -104 callsubr
          endchar
        </CharString>
        <CharString name="Adieresis">
          -60 callgsubr
          58 -8 callsubr
          82 156 -26 -45 callgsubr
          -31 157 hintmask 11101001
          -74 callsubr
          hintmask 11110110
          -26 545 -107 callgsubr
        </CharString>
        <CharString name="Agrave">
          -31 callsubr
          -74 callsubr
          210 467 -95 callgsubr
        </CharString>
        <CharString name="Aring">
          -57 callsubr
          162 -33 -20 23 -20 120 72 hstemhm
          82 156 29 72 70 72 41 157 hintmask 1100101001000000
          hintmask 1101011101000000
          267 773 rmoveto
          -26 9 -23 15 -19 vhcurveto
          hintmask 1101001001000000
          -132 -30 -77 -103 -173 vvcurveto
          -399 -79 callgsubr
          vlineto
          hintmask 1100111011000000
          174 -82 102 -138 27 vhcurveto
          14 18 8 22 25 vvcurveto
          59 -48 48 -59 vhcurveto
          hintmask 1101011101000000
          -59 -48 -48 -59 hvcurveto
          hintmask 1110001001000000
          -29 -369 -88 callsubr
          hintmask 1110011111000000
          101 471 rmoveto
          -54 callsubr
        </CharString>
        <CharString name="Atilde">
          -60 callgsubr
          51 -54 callgsubr
          82 156 -53 -18 callsubr
          -48 157 hintmask 1110110010000000
          377 793 rmoveto
          hintmask 1111010100000000
          -98 callgsubr
          hintmask 1110101010000000
          -98 callsubr
          hintmask 1110110010000000
          -52 callsubr
          -295 -793 rmoveto
          -104 callsubr
          endchar
        </CharString>
        <CharString name="B">
          14 0 132 161 123 151 132 hstemhm
          86 156 202 161 -122 161 hintmask 11110100
          392 hmoveto
          201 51 108 86 89 -56 62 -86 18 hvcurveto
          hintmask 11111000
          34 16 69 28 107 vvcurveto
          79 -46 106 -201 vhcurveto
          -272 -699 hlineto
          156 416 rmoveto
          151 75 vlineto
          84 43 -9 -69 -65 -54 -8 -74 hvcurveto
          -74 -284 rmoveto
          161 92 vlineto
          hintmask 11110100
          93 56 -10 -69 -71 -56 -11 -78 hvcurveto
          endchar
        </CharString>
        <CharString name="C">
          57 -8 146 428 149 hstem
          44 161 vstem
          -67 callsubr
          -211 159 -150 204 133 93 64 70 62 hvcurveto
          -100 103 rlineto
          0 callsubr
        </CharString>
        <CharString name="CR">
          -411 endchar
        </CharString>
        <CharString name="Ccedilla">
          57 -6 callsubr
          568 149 hstemhm
          44 161 170 117 hintmask 01111000
          -67 callsubr
          -187 125 -139 171 -29 hvcurveto
          hintmask 10111100
          -81 callgsubr
          hintmask 01111000
          -38 -86 rlineto
          hintmask 10111100
          -69 callgsubr
          26 48 109 13 78 56 55 62 rlinecurve
          -100 103 rlineto
          hintmask 01111000
          0 callsubr
        </CharString>
        <CharString name="D">
          94 0 138 425 136 -21 callgsubr
          321 -10 callgsubr
          720 350 rmoveto
          -3 callgsubr
          vhcurveto
          -247 -699 -12 callgsubr
          hvcurveto
          -157 hmoveto
          -5 callgsubr
          425 -11 callgsubr
        </CharString>
        <CharString name="Delta">
          128 0 136 562 -20 hstem
          30 743 vstem
          472 698 rmoveto
          -141 hlineto
          -301 -698 rlineto
          743 hlineto
          -518 136 rmoveto
          146 335 146 -335 rlineto
          endchar
        </CharString>
        <CharString name="E">
          -94 callsubr
          endchar
        </CharString>
        <CharString name="Eacute">
          -67 -64 callsubr
          357 -42 callgsubr
          313 -98 -86 callgsubr
          endchar
        </CharString>
        <CharString name="Ecircumflex">
          -16 callsubr
          54 158 -39 callsubr
          hintmask 11111000
          235 -70 callgsubr
          415 -98 -33 callsubr
          hintmask 11110100
          -66 callsubr
          hintmask 11111000
          -100 callgsubr
          hintmask 11110100
          -77 callsubr
          endchar
        </CharString>
        <CharString name="Edieresis">
          -16 callsubr
          58 148 -39 callsubr
          -90 -45 callgsubr
          hintmask 11101001
          527 671 -33 callsubr
          hintmask 11100101
          -66 callsubr
          hintmask 11101001
          -100 callgsubr
          hintmask 11100101
          -77 callsubr
          hintmask 11110011
          -345 317 -107 callgsubr
        </CharString>
        <CharString name="Egrave">
          -94 callsubr
          -49 239 -95 callgsubr
        </CharString>
        <CharString name="Eth">
          109 0 138 142 133 150 136 hstem
          100 156 321 -10 callgsubr
          26 280 rmoveto
          74 -280 -12 callgsubr
          -3 callgsubr
          hvcurveto
          -247 -286 -74 hlineto
          551 -63 rmoveto
          -5 callgsubr
          142 234 133 -234 150 -11 callgsubr
        </CharString>
        <CharString name="Euro">
          91 -8 148 97 84 59 84 103 148 hstem
          129 -13 callsubr
          46 380 rmoveto
          84 hlineto
          -1 -10 0 -10 -10 vvcurveto
          -10 0 -10 1 -9 vhcurveto
          -84 -84 97 hlineto
          -148 41 119 -97 152 hhcurveto
          88 101 37 88 76 hvcurveto
          -92 102 rlineto
          -54 -43 -61 -25 -58 hhcurveto
          -64 -60 32 65 -33 hvcurveto
          228 84 -251 hlineto
          -1 9 0 10 11 vvcurveto
          10 0 9 1 10 vhcurveto
          251 84 -233 hlineto
          72 30 59 31 66 hhcurveto
          64 58 -28 -61 50 hvcurveto
          89 116 rlineto
          70 -62 -76 51 -119 hhcurveto
          -165 -116 -103 -148 -39 hvcurveto
          -97 hlineto
          endchar
        </CharString>
        <CharString name="F">
          -83 21 -21 244 138 189 144 hstem
          84 -13 callsubr
          573 671 rmoveto
          0 -94 44 -122 -155 -118 -89 -193 vhcurveto
          -433 156 244 231 138 -231 63 vlineto
          67 31 59 97 88 87 -41 0 vhcurveto
          endchar
        </CharString>
        <CharString name="G">
          85 -8 144 429 150 hstem
          49 161 359 147 vstem
          673 616 rmoveto
          56 -62 -83 43 -112 -23 callsubr
          -226 167 -135 171 61 59 12 41 62 hvcurveto
          -53 147 355 -147 -137 vlineto
          -48 -37 -57 -26 -65 hhcurveto
          -107 -93 76 139 135 95 79 116 58 53 -15 -57 61 hvcurveto
          endchar
        </CharString>
        <CharString name="H">
          87 21 -21 275 132 292 -20 -21 callgsubr
          278 -13 callsubr
          520 -13 callgsubr
          -292 -278 292 -32 callsubr
          275 278 -275 156 699 vlineto
          endchar
        </CharString>
        <CharString name="I">
          -67 callgsubr
          endchar
        </CharString>
        <CharString name="Iacute">
          -57 callgsubr
          hstem
          169 -13 callsubr
          309 -42 callgsubr
          284 -635 -89 callsubr
          endchar
        </CharString>
        <CharString name="Icircumflex">
          -57 callgsubr
          70 158 -82 callgsubr
          -283 -70 callgsubr
          endchar
        </CharString>
        <CharString name="Idieresis">
          -57 callgsubr
          74 -8 callsubr
          80 148 -59 156 -52 148 hintmask 11001000
          -85 callsubr
          hintmask 11110100
          -370 847 -107 callgsubr
        </CharString>
        <CharString name="Igrave">
          -67 callgsubr
          -100 769 -95 callgsubr
        </CharString>
        <CharString name="Itilde">
          -57 callgsubr
          55 -54 callgsubr
          53 106 10 156 7 106 hintmask 11010100
          245 781 rmoveto
          hintmask 11100100
          -52 callgsubr
          hintmask 11100010
          -73 callgsubr
          205 -647 -56 callsubr
          hlineto
          hintmask 11011100
          -401 -134 hlineto
          hintmask 11010100
          -72 callsubr
          endchar
        </CharString>
        <CharString name="J">
          -94 -2 callsubr
          -73 callsubr
          endchar
        </CharString>
        <CharString name="Jcircumflex">
          -119 -2 callsubr
          71 158 -73 callsubr
          105 71 -96 callgsubr
        </CharString>
        <CharString name="K">
          35 21 -22 callgsubr
          -21 callgsubr
          vstem
          86 -13 callgsubr
          -34 callgsubr
          198 vlineto
          70 78 205 -276 rlineto
          182 hlineto
          -87 121 -103 146 -88 123 278 309 rcurveline
          -193 hlineto
          -264 -287 rlineto
          287 vlineto
          endchar
        </CharString>
        <CharString name="L">
          -107 0 139 560 -20 -21 callgsubr
          vstem
          86 hmoveto
          454 139 -298 560 -156 hlineto
          endchar
        </CharString>
        <CharString name="Lslash">
          -91 0 139 559 -20 hstem
          102 -13 callsubr
          28 178 rmoveto
          74 23 rlineto
          -201 454 139 -298 111 vlineto
          205 65 rlineto
          136 vlineto
          -205 -65 rlineto
          312 -156 -361 vlineto
          -74 -24 rlineto
          endchar
        </CharString>
        <CharString name="M">
          377 21 -21 571 128 -128 144 hstemhm
          81 156 213 156 213 157 hintmask 10111100
          606 417 rmoveto
          106 46 48 64 67 36 -47 -105 vhcurveto
          -419 157 446 vlineto
          155 -84 114 -159 -143 -54 -130 0 vhcurveto
          54 -13 -57 76 -92 hhcurveto
          -57 -50 -31 -41 -30 hvcurveto
          hintmask 11011100
          56 -32 callsubr
          424 vlineto
          hintmask 10111100
          106 56 41 58 74 25 -70 -94 vhcurveto
          -407 156 vlineto
          endchar
        </CharString>
        <CharString name="N">
          97 -83 callsubr
          endchar
        </CharString>
        <CharString name="NULL">
          -675 endchar
        </CharString>
        <CharString name="Nacute">
          142 -83 callsubr
          hintmask 11011000
          72 200 -74 callgsubr
          -155 -82 callsubr
          endchar
        </CharString>
        <CharString name="Ntilde">
          97 21 -21 571 144 -72 56 67 -54 callgsubr
          91 156 -58 -18 callsubr
          -41 156 hintmask 1100110010000000
          381 793 rmoveto
          hintmask 1101010100000000
          -98 callgsubr
          hintmask 1100101010000000
          -98 callsubr
          hintmask 1100110010000000
          -52 callsubr
          18 -222 -75 callgsubr
          hintmask 1010110010000000
          -49 callsubr
          endchar
        </CharString>
        <CharString name="O">
          -100 callsubr
          endchar
        </CharString>
        <CharString name="OE">
          367 0 131 -131 138 145 133 144 138 -131 131 hstemhm
          47 166 260 157 hintmask 01110110
          978 698 rmoveto
          -575 hlineto
          -201 -155 -149 -200 -200 155 -149 201 hvcurveto
          586 138 -359 145 312 133 -312 144 348 hlineto
          hintmask 10101110
          -765 -211 rmoveto
          120 87 98 113 vhcurveto
          60 -436 -60 hlineto
          -113 -87 99 119 hvcurveto
          endchar
        </CharString>
        <CharString name="Oacute">
          -100 callsubr
          72 778 -74 callgsubr
          -155 -82 callsubr
          endchar
        </CharString>
        <CharString name="Ocircumflex">
          -56 callgsubr
          54 158 -103 callsubr
          -84 776 -96 callgsubr
        </CharString>
        <CharString name="Odieresis">
          -56 callgsubr
          58 148 hstem
          5 callgsubr
          35 -45 callgsubr
          39 -105 callsubr
          -172 854 -107 callgsubr
        </CharString>
        <CharString name="Ograve">
          -100 callsubr
          81 776 -95 callgsubr
        </CharString>
        <CharString name="Omega">
          225 0 138 441 136 hstem
          85 146 438 146 vstem
          450 715 rmoveto
          -222 -143 -159 -183 -82 35 -84 81 -69 hvcurveto
          -147 -138 358 132 hlineto
          -112 36 -69 111 98 vvcurveto
          111 79 91 140 140 79 -91 -111 -98 -69 -111 -112 -36 vhcurveto
          -132 358 138 -147 vlineto
          81 69 35 84 82 vvcurveto
          183 -143 159 -222 vhcurveto
          endchar
        </CharString>
        <CharString name="Oslash">
          151 -7 136 -107 -21 578 136 -13 -20 hstemhm
          5 callgsubr
          415 159 hintmask 10101100
          560 805 rmoveto
          hintmask 10011100
          -47 -103 rlineto
          hintmask 01101100
          8 -32 -33 5 -35 hhcurveto
          -68 callsubr
          -132 66 -111 102 -63 hvcurveto
          -73 -160 4 callgsubr
          52 113 rlineto
          hintmask 10101100
          -5 25 27 -3 27 hhcurveto
          -59 callgsubr
          124 -59 106 -91 64 hvcurveto
          72 157 rlineto
          -289 -226 rmoveto
          14 14 -2 -3 14 hvcurveto
          -179 -390 rlineto
          -44 41 -26 61 67 vvcurveto
          -47 callsubr
          vhcurveto
          208 -226 rmoveto
          -123 -90 -101 -118 -7 -7 0 1 -6 vhcurveto
          172 378 rlineto
          35 -41 21 -54 -60 vvcurveto
          endchar
        </CharString>
        <CharString name="Otilde">
          -56 callgsubr
          50 -54 callgsubr
          5 callgsubr
          13 -18 callsubr
          17 159 hintmask 11011001
          -106 callgsubr
          -2 799 rmoveto
          hintmask 11101011
          -98 callgsubr
          hintmask 11011101
          -46 callsubr
        </CharString>
        <CharString name="P">
          2 21 -21 195 135 235 134 -21 callgsubr
          239 160 vstem
          641 451 rmoveto
          160 -89 88 -219 vhcurveto
          -247 -34 callgsubr
          195 93 hlineto
          202 104 71 185 hvcurveto
          -160 hmoveto
          -68 -22 -53 -112 vhcurveto
          -105 235 89 hlineto
          99 51 -27 -87 hvcurveto
          endchar
        </CharString>
        <CharString name="Q">
          157 -117 359 -220 -21 578 136 hstemhm
          49 160 129 156 130 159 hintmask 01111100
          783 354 rmoveto
          -87 callsubr
          -179 122 -141 167 -33 vhcurveto
          hintmask 10111100
          -118 156 vlineto
          hintmask 01111100
          118 vlineto
          168 33 121 141 179 vvcurveto
          hintmask 10111100
          -445 -112 rmoveto
          -97 vlineto
          -77 33 -52 81 94 vvcurveto
          -47 callsubr
          118 90 -101 -125 -94 -53 -81 -77 -33 vhcurveto
          97 vlineto
          endchar
        </CharString>
        <CharString name="R">
          -86 callsubr
          endchar
        </CharString>
        <CharString name="Racute">
          -86 callsubr
          -147 304 -74 callgsubr
          -155 -82 callsubr
          endchar
        </CharString>
        <CharString name="Rcaron">
          52 21 -34 callsubr
          70 158 -99 callsubr
          -364 460 -97 callsubr
        </CharString>
        <CharString name="Rcommaaccent">
          52 -250 195 76 -34 callsubr
          -33 callgsubr
          246 -17 callsubr
          342 522 -101 callsubr
          endchar
        </CharString>
        <CharString name="S">
          -2 callgsubr
          -90 callsubr
          endchar
        </CharString>
        <CharString name="Scaron">
          -2 callgsubr
          54 158 -90 callsubr
          -126 414 -97 callsubr
        </CharString>
        <CharString name="T">
          10 21 -21 715 -20 hstem
          265 -10 callgsubr
          422 hmoveto
          562 vlineto
          90 -25 74 -54 0 vvcurveto
          82 119 rlineto
          63 -69 -134 50 -122 hhcurveto
          -123 -134 -50 -63 -69 hvcurveto
          82 -119 rlineto
          0 76 55 90 24 vhcurveto
          -562 vlineto
          endchar
        </CharString>
        <CharString name="Thorn">
          10 21 -21 111 135 234 135 -135 219 hstemhm
          86 156 239 160 hintmask 11011100
          641 368 rmoveto
          hintmask 11101100
          159 -99 88 -219 vhcurveto
          -81 hlineto
          hintmask 11011100
          84 -32 callsubr
          111 83 vlineto
          202 114 71 186 hvcurveto
          -160 hmoveto
          -69 -30 -53 -114 vhcurveto
          -95 234 79 hlineto
          101 59 -26 -86 hvcurveto
          endchar
        </CharString>
        <CharString name="U">
          -84 callsubr
          endchar
        </CharString>
        <CharString name="Uacute">
          -61 callgsubr
          439 -42 callgsubr
          77 -633 -71 callgsubr
          endchar
        </CharString>
        <CharString name="Ucircumflex">
          -53 callgsubr
          90 158 hstemhm
          83 -32 callgsubr
          hintmask 10111100
          291 -70 callgsubr
          205 -633 -90 callgsubr
          hintmask 01111100
          -53 callsubr
          hintmask 10111100
          -27 callgsubr
          endchar
        </CharString>
        <CharString name="Udieresis">
          -53 callgsubr
          94 -8 callsubr
          83 156 -25 -45 callgsubr
          -30 156 hintmask 10111001
          373 136 -90 callgsubr
          hintmask 01111001
          -53 callsubr
          hintmask 10111001
          -27 callgsubr
          hintmask 10110110
          -159 711 -107 callgsubr
        </CharString>
        <CharString name="Ugrave">
          -84 callsubr
          95 633 -95 callgsubr
        </CharString>
        <CharString name="V">
          13 21 -22 callgsubr
          hstem
          -3 694 vstem
          344 254 rmoveto
          -178 445 rlineto
          -169 hlineto
          281 -699 rlineto
          132 hlineto
          281 699 rlineto
          -169 hlineto
          endchar
        </CharString>
        <CharString name="W">
          355 -8 144 563 -20 hstem
          76 155 200 160 201 155 vstem
          792 -13 callgsubr
          -430 vlineto
          -85 -36 -48 -62 -65 -38 48 85 vhcurveto
          -1 430 rlineto
          -158 hlineto
          -1 -430 rlineto
          -85 -38 -48 -65 -62 -35 48 85 vhcurveto
          430 -155 -430 vlineto
          -176 90 -101 157 75 69 34 60 44 vhcurveto
          -60 43 69 -34 77 hhcurveto
          157 90 101 176 hvcurveto
          430 vlineto
          endchar
        </CharString>
        <CharString name="X">
          20 21 -22 callgsubr
          hstem
          10 675 vstem
          479 -13 callgsubr
          -133 -207 -133 207 rlineto
          -187 hlineto
          219 -341 -235 -358 rlineto
          188 hlineto
          148 230 149 -230 rlineto
          190 hlineto
          -236 362 218 337 rlineto
          endchar
        </CharString>
        <CharString name="Y">
          51 -91 callsubr
          endchar
        </CharString>
        <CharString name="Yacute">
          -57 -91 callsubr
          155 637 -74 callgsubr
          -155 -82 callsubr
          endchar
        </CharString>
        <CharString name="Z">
          2 -10 callsubr
          -79 callsubr
          endchar
        </CharString>
        <CharString name="Zcaron">
          6 -10 callsubr
          70 158 -79 callsubr
          46 533 -97 callsubr
        </CharString>
        <CharString name="a">
          -89 callgsubr
          endchar
        </CharString>
        <CharString name="aacute">
          -76 callsubr
          -26 callsubr
          -192 -342 -81 callsubr
          endchar
        </CharString>
        <CharString name="acircumflex">
          -87 callgsubr
          64 158 -30 callgsubr
          hintmask 10011110
          217 611 -103 callgsubr
          -50 -342 -84 callgsubr
          hintmask 01101110
          -44 -78 callsubr
          hintmask 10011110
          -102 callgsubr
          endchar
        </CharString>
        <CharString name="acute">
          -293 771 177 hstem
          50 282 vstem
          193 -21 callsubr
          endchar
        </CharString>
        <CharString name="adieresis">
          -87 callgsubr
          70 -8 callsubr
          44 151 -50 -45 callgsubr
          -39 151 hintmask 1001110010000000
          -26 callgsubr
          hintmask 0110110010000000
          -44 -78 callsubr
          hintmask 1001110010000000
          -102 callgsubr
          hintmask 1001101100000000
          -181 572 -107 callgsubr
        </CharString>
        <CharString name="ae">
          261 -8 124 103 115 89 124 hstem
          40 151 184 6 callgsubr
          895 219 rmoveto
          77 vlineto
          162 -115 89 -143 -61 -58 -19 -37 -46 vhcurveto
          40 -42 -61 16 -65 hhcurveto
          -78 -73 -22 -65 -81 hvcurveto
          67 -97 rlineto
          41 58 45 21 47 hhcurveto
          48 39 -20 -64 hvcurveto
          -7 -112 vlineto
          -131 -93 -45 -118 -109 99 -70 113 64 71 15 61 62 hvcurveto
          -49 48 67 -27 74 hhcurveto
          78 73 20 81 77 hvcurveto
          -88 98 rlineto
          -55 -45 -44 -20 -43 hhcurveto
          -57 -52 37 61 -11 hvcurveto
          5 vlineto
          -151 -14 rmoveto
          -56 -47 -34 -60 -43 -34 20 40 41 42 3 48 vhcurveto
          94 hlineto
          153 115 rmoveto
          57 13 49 32 52 hhcurveto
          50 41 -29 -60 9 hvcurveto
          endchar
        </CharString>
        <CharString name="agrave">
          -89 callgsubr
          79 492 -95 callgsubr
        </CharString>
        <CharString name="ampersand">
          25 -8 125 480 118 hstemhm
          47 149 -65 150 115 145 hintmask 11101000
          520 364 rmoveto
          -9 -36 -13 -32 -16 -29 -38 42 -22 29 -24 30 rrcurveto
          88 52 55 57 73 vvcurveto
          112 -105 53 -89 vhcurveto
          hintmask 11011000
          -117 -99 -57 -118 -60 25 -36 38 -46 hvcurveto
          hintmask 11101000
          -93 -54 -54 -64 -77 vvcurveto
          -137 116 -74 127 64 72 13 55 68 vhcurveto
          87 -89 99 94 -99 98 20 33 19 38 17 46 rlinecurve
          -340 -163 rmoveto
          -56 -45 33 48 39 32 36 45 28 hvcurveto
          26 -31 43 -49 57 -60 rrcurveto
          -28 -34 -36 -16 -32 hhcurveto
          hintmask 11011000
          -16 425 rmoveto
          34 30 21 25 29 31 -17 -42 -23 -23 -24 -52 -28 vhcurveto
          -27 34 -13 20 25 vvcurveto
          endchar
        </CharString>
        <CharString name="approxequal">
          -3 190 214 -210 214 23 214 -210 214 hstemhm
          81 141 230 141 hintmask 10011100
          hintmask 01011100
          337 226 rmoveto
          hintmask 10011100
          -42 callsubr
          hintmask 01011100
          -40 callgsubr
          hintmask 10011100
          241 vmoveto
          hintmask 10101100
          -42 callsubr
          hintmask 10011100
          -40 callgsubr
          endchar
        </CharString>
        <CharString name="aring">
          -87 callgsubr
          49 72 70 72 hstemhm
          44 151 4 72 70 72 34 151 hintmask 1001111011000000
          -26 callgsubr
          hintmask 0110111011000000
          -44 -78 callsubr
          hintmask 1001111011000000
          -102 callgsubr
          hintmask 1001110111000000
          -127 584 -62 callsubr
        </CharString>
        <CharString name="asciicircum">
          -192 771 177 hstem
          22 439 vstem
          165 771 rmoveto
          76 85 77 -85 rlineto
          143 hlineto
          -137 177 rlineto
          -165 hlineto
          -137 -37 callsubr
        </CharString>
        <CharString name="asciitilde">
          -140 289 125 -60 124 hstemhm
          25 119 243 120 hintmask 01110000
          hintmask 10110000
          368 289 rmoveto
          69 62 39 119 8 hvcurveto
          -120 32 rlineto
          -33 7 -7 -32 -30 hhcurveto
          hintmask 01110000
          -49 -66 64 -67 hhcurveto
          -81 -60 -50 -111 -9 hvcurveto
          119 -36 rlineto
          51 -1 23 22 20 hhcurveto
          hintmask 10110000
          47 72 -65 63 hhcurveto
          endchar
        </CharString>
        <CharString name="asterisk">
          -219 363 336 0 -20 hstemhm
          175 106 hintmask 01100000
          278 447 rmoveto
          71 -49 51 91 -84 42 85 42 -52 89 -71 -47 6 84 rlineto
          -112 hlineto
          6 -84 -71 47 -52 -89 85 -42 -84 -42 rlineto
          hintmask 10100000
          51 -91 71 49 -6 -84 rlineto
          112 hlineto
          endchar
        </CharString>
        <CharString name="at">
          216 -121 75 79 89 -79 111 235 114 -53 41 108 75 hstemhm
          48 88 80 128 190 124 98 87 hintmask 1011011111000000
          hintmask 1100111111000000
          688 122 rmoveto
          -18 -12 16 34 hvcurveto
          319 -125 -41 vlineto
          hintmask 1011011111000000
          0 -42 53 -70 -126 -79 -107 -125 -138 103 -90 104 50 52 19 52 40 vhcurveto
          hintmask 1101011111000000
          -47 16 46 -34 51 hhcurveto
          99 66 96 147 227 -169 171 -222 -223 -181 -181 -225 -221 170 -168 222 72 93 31 47 54 hvcurveto
          -41 71 rlineto
          -52 -54 -70 -22 -54 hhcurveto
          -172 -132 135 179 182 142 149 174 195 109 -144 -182 hvcurveto
          hintmask 1100111111000000
          -89 -33 -62 -35 vhcurveto
          hintmask 1011011111000000
          -252 267 rmoveto
          62 36 -52 -62 -65 -33 -56 -64 -58 -35 58 64 60 36 53 56 hvcurveto
          endchar
        </CharString>
        <CharString name="atilde">
          -87 callgsubr
          -1 callgsubr
          44 151 -63 -18 callsubr
          -70 151 hintmask 1001011001000000
          324 635 rmoveto
          hintmask 1001101010000000
          -98 callgsubr
          hintmask 1001010101000000
          -98 callsubr
          hintmask 1001011001000000
          -52 callsubr
          -280 -366 -84 callgsubr
          hintmask 0110011001000000
          -44 -78 callsubr
          hintmask 1001011001000000
          -102 callgsubr
          endchar
        </CharString>
        <CharString name="b">
          -24 callsubr
          71 150 253 151 hintmask 10111100
          2 callsubr
          175 -121 103 -123 -57 -60 -21 -48 -43 vhcurveto
          264 -150 vlineto
          hintmask 01111100
          -742 150 vlineto
          hintmask 10111100
          71 vlineto
          -58 46 57 -21 56 hhcurveto
          123 122 120 157 -72 callgsubr
        </CharString>
        <CharString name="backslash">
          -103 21 -21 757 -20 hstem
          28 515 vstem
          28 757 rmoveto
          364 -757 -22 callsubr
          -364 757 rlineto
          endchar
        </CharString>
        <CharString name="bar">
          -399 -146 923 hstem
          76 124 vstem
          76 -146 rmoveto
          124 923 -124 hlineto
          endchar
        </CharString>
        <CharString name="braceleft">
          -315 -140 122 267 122 265 121 hstem
          106 140 vstem
          311 -140 rmoveto
          122 vlineto
          -52 -13 13 20 hvcurveto
          218 vlineto
          38 -15 25 -22 14 vhcurveto
          22 15 15 24 39 vvcurveto
          209 vlineto
          33 21 6 23 vhcurveto
          7 7 -1 7 hhcurveto
          122 -55 vlineto
          -69 -81 -22 -121 hvcurveto
          -201 vlineto
          -32 -8 -10 -15 vhcurveto
          -46 -122 46 hlineto
          15 8 -9 -32 hvcurveto
          -205 vlineto
          -121 81 -22 69 vhcurveto
          endchar
        </CharString>
        <CharString name="braceright">
          -315 -140 121 265 122 267 122 hstem
          114 140 vstem
          49 757 rmoveto
          -122 vlineto
          52 13 -13 -20 hvcurveto
          -218 vlineto
          -38 15 -25 22 -14 vhcurveto
          -22 -15 -15 -24 -39 vvcurveto
          -209 vlineto
          -33 -21 -6 -23 vhcurveto
          -7 -7 1 -7 hhcurveto
          -122 55 vlineto
          69 81 22 121 hvcurveto
          201 vlineto
          32 8 10 15 vhcurveto
          46 122 -46 hlineto
          -15 -8 9 32 hvcurveto
          205 vlineto
          121 -81 22 -69 vhcurveto
          endchar
        </CharString>
        <CharString name="bracketleft">
          -12 callsubr
          77 128 vstem
          334 757 rmoveto
          -257 -891 257 113 -129 665 129 hlineto
          endchar
        </CharString>
        <CharString name="bracketright">
          -12 callsubr
          169 128 vstem
          40 -134 rmoveto
          257 891 -257 -113 129 -665 -129 hlineto
          endchar
        </CharString>
        <CharString name="breve">
          -107 552 174 hstem
          100 368 vstem
          284 666 rmoveto
          -33 -19 24 36 -11 hvcurveto
          -121 hlineto
          -110 9 73 -64 102 hhcurveto
          102 73 64 110 9 hvcurveto
          -121 hlineto
          -36 -11 -19 -24 -33 hhcurveto
          endchar
        </CharString>
        <CharString name="brokenbar">
          -381 409 345 0 -20 hstemhm
          80 134 hintmask 01100000
          hintmask 10100000
          80 409 rmoveto
          134 345 -134 hlineto
          -777 vmoveto
          134 344 -134 hlineto
          endchar
        </CharString>
        <CharString name="bullet">
          -237 178 278 hstem
          80 278 vstem
          80 317 rmoveto
          -77 62 -62 77 77 62 62 77 77 -62 62 -77 -77 -62 -62 -77 vhcurveto
          endchar
        </CharString>
        <CharString name="c">
          -93 -8 133 290 132 hstem
          40 147 vstem
          464 -58 callsubr
          -170 136 -106 145 79 80 32 76 73 hvcurveto
          endchar
        </CharString>
        <CharString name="caron">
          -62 760 158 hstem
          100 413 vstem
          100 918 -97 callsubr
        </CharString>
        <CharString name="ccedilla">
          -92 -6 callsubr
          417 132 hstemhm
          41 147 109 117 hintmask 01111000
          465 -58 callsubr
          -146 100 -99 121 -25 hvcurveto
          hintmask 10111100
          -81 callgsubr
          hintmask 01111000
          -38 -86 rlineto
          hintmask 10111100
          -69 callgsubr
          27 50 61 12 60 32 57 59 rlinecurve
          endchar
        </CharString>
        <CharString name="cedilla">
          -394 -1 callsubr
          hstemhm
          14 230 -117 117 hintmask 01110000
          hintmask 10101000
          207 hmoveto
          -115 hlineto
          -81 callgsubr
          hintmask 01110000
          -38 -86 rlineto
          hintmask 10101000
          -69 callgsubr
          endchar
        </CharString>
        <CharString name="cent">
          -77 17 -21 22 -21 545 -20 21 -20 hstemhm
          46 147 87 96 hintmask 01011100
          470 200 rmoveto
          0 -36 -51 -58 -18 vhcurveto
          279 vlineto
          36 -8 36 -21 27 -31 78 102 rcurveline
          -51 52 -64 30 -62 9 rrcurveto
          114 -96 vlineto
          hintmask 10101100
          -115 vlineto
          -127 -21 -107 -101 -152 vvcurveto
          -152 108 -100 126 -20 vhcurveto
          -113 96 vlineto
          hintmask 01011100
          114 vlineto
          63 10 62 32 58 61 rrcurveto
          -366 170 rmoveto
          70 38 45 49 19 vhcurveto
          -269 vlineto
          -48 18 -39 45 72 vvcurveto
          endchar
        </CharString>
        <CharString name="circumflex">
          -192 771 158 hstem
          35 413 vstem
          158 771 -96 callgsubr
        </CharString>
        <CharString name="colon">
          -365 -8 176 87 176 hstem
          67 176 vstem
          67 80 -75 callsubr
          263 vmoveto
          -101 callgsubr
        </CharString>
        <CharString name="comma">
          -378 -99 267 hstemhm
          53 188 -185 185 hintmask 11000000
          53 -99 rmoveto
          hintmask 10100000
          99 hlineto
          60 103 rlineto
          16 26 13 22 28 vvcurveto
          51 -43 37 -51 -48 -43 -37 -51 -28 14 -25 21 -15 vhcurveto
          endchar
        </CharString>
        <CharString name="copyright">
          149 -12 74 84 98 217 98 77 75 hstem
          51 74 85 113 376 -66 callgsubr
          -156 -126 -132 -162 -36 callgsubr
          vhcurveto
          -169 -48 rmoveto
          -40 -24 -39 -18 -37 hhcurveto
          -55 -52 39 70 72 50 36 54 36 38 -16 -32 27 hvcurveto
          60 75 rlineto
          49 -47 -63 22 -55 hhcurveto
          -110 -103 -79 -129 -126 98 -79 108 59 63 24 57 54 hvcurveto
          endchar
        </CharString>
        <CharString name="currency">
          86 40 134 287 135 hstem
          96 156 256 -10 callgsubr
          56 75 rmoveto
          93 -95 93 94 rlineto
          -22 40 47 -12 51 hhcurveto
          51 47 13 21 41 hvcurveto
          93 -94 93 95 -87 88 rlineto
          30 44 17 54 57 vvcurveto
          56 -16 52 -28 43 vhcurveto
          84 86 -94 95 -89 -90 rlineto
          23 -41 -48 13 -53 hhcurveto
          -52 -48 -13 -22 -41 hvcurveto
          -89 89 -94 -95 84 -85 rlineto
          -29 -44 -15 -52 -56 vvcurveto
          -58 16 -53 30 -44 vhcurveto
          238 11 rmoveto
          -74 -54 59 85 85 54 58 74 74 54 -58 -85 -85 -54 -59 -74 hvcurveto
          endchar
        </CharString>
        <CharString name="d">
          -24 callsubr
          41 151 253 150 hintmask 10111100
          41 269 rmoveto
          -157 122 -120 123 56 57 21 58 46 vhcurveto
          hintmask 01111100
          -71 150 742 -150 -264 vlineto
          48 -43 -60 21 -57 hhcurveto
          hintmask 10111100
          -123 -121 -103 -175 hvcurveto
          282 -149 rmoveto
          -67 -64 58 90 88 59 65 72 66 58 -63 -91 -87 -58 -60 -66 hvcurveto
          endchar
        </CharString>
        <CharString name="dagger">
          -137 373 -3 callsubr
          145 vstem
          193 -185 rmoveto
          145 558 165 130 -165 196 -145 -196 -158 -130 158 hlineto
          endchar
        </CharString>
        <CharString name="daggerdbl">
          -141 71 111 191 -3 callsubr
          146 vstem
          339 373 rmoveto
          158 130 -158 196 -146 -196 -155 -130 155 -191 -102 -111 102 -256 146 256 99 111 -99 hlineto
          endchar
        </CharString>
        <CharString name="degree">
          -247 388 82 160 84 hstem
          47 95 143 96 vstem
          214 714 rmoveto
          -92 -75 -74 -90 -90 75 -72 92 92 75 72 90 90 -75 74 -92 hvcurveto
          -1 -244 rmoveto
          -39 -32 35 46 44 32 35 39 41 31 -35 -44 -46 -31 -35 -41 hvcurveto
          endchar
        </CharString>
        <CharString name="dieresis">
          -144 617 148 hstem
          95 -45 callgsubr
          vstem
          95 691 -107 callgsubr
        </CharString>
        <CharString name="divide">
          -93 72 176 40 123 40 176 hstem
          203 176 cntrmask 11100000
          203 160 -75 callsubr
          379 vmoveto
          -104 callgsubr
          -155 -128 -8 callgsubr
        </CharString>
        <CharString name="dollar">
          -40 22 -21 702 -20 22 -20 69 -20 hstemhm
          67 160 43 106 51 160 hintmask 10110110
          270 -69 rmoveto
          106 70 hlineto
          126 14 85 77 121 vvcurveto
          114 -72 55 -139 36 vhcurveto
          144 vlineto
          36 -10 39 -20 42 -30 rrcurveto
          hintmask 11010110
          82 118 -66 46 -62 27 -71 10 rlinecurve
          51 -106 vlineto
          hintmask 10111110
          -49 vlineto
          -120 -15 -83 -78 -113 vvcurveto
          -122 72 -49 131 -34 vhcurveto
          -149 vlineto
          -47 14 -45 30 -49 43 -93 -113 rcurveline
          71 -63 80 -39 83 -13 rrcurveto
          157 198 rmoveto
          -30 -19 -22 -32 -10 vhcurveto
          123 vlineto
          40 -17 11 -17 -27 vvcurveto
          -200 307 rmoveto
          25 15 22 28 10 vhcurveto
          -116 vlineto
          -33 16 -10 17 26 vvcurveto
          endchar
        </CharString>
        <CharString name="dotaccent">
          -364 581 202 hstem
          55 202 vstem
          55 682 rmoveto
          -56 45 -45 56 56 45 45 56 56 -45 45 -56 -56 -45 -45 -56 vhcurveto
          endchar
        </CharString>
        <CharString name="dotlessi">
          21 -21 538 -11 callsubr
          vstem
          -61 callsubr
          endchar
        </CharString>
        <CharString name="e">
          -35 callgsubr
          -85 callgsubr
          endchar
        </CharString>
        <CharString name="eacute">
          -35 callgsubr
          -26 callsubr
          350 -286 -106 callsubr
          endchar
        </CharString>
        <CharString name="ecircumflex">
          -38 callgsubr
          64 158 1 callgsubr
          217 611 -103 callgsubr
          492 -286 -106 callsubr
          endchar
        </CharString>
        <CharString name="edieresis">
          -38 callgsubr
          70 -8 callsubr
          43 147 -45 -45 callgsubr
          hintmask 11110100
          -85 callgsubr
          hintmask 11101100
          -185 274 -107 callgsubr
        </CharString>
        <CharString name="egrave">
          -35 callgsubr
          -85 callgsubr
          75 194 -95 callgsubr
        </CharString>
        <CharString name="eight">
          -33 -8 130 185 120 167 121 hstemhm
          54 156 -132 148 190 147 -131 156 hintmask 11110010
          hintmask 11101100
          321 715 rmoveto
          -137 -106 -80 -117 -59 29 -41 34 -32 hvcurveto
          hintmask 11110010
          -51 -39 -36 -59 -78 vvcurveto
          -120 104 -98 163 162 105 98 120 78 -36 59 -51 39 vhcurveto
          hintmask 11110100
          34 32 28 41 59 vvcurveto
          hintmask 11101100
          117 -105 80 -137 vhcurveto
          hintmask 11110010
          -593 vmoveto
          -46 -65 27 63 68 61 27 50 50 61 -27 -68 -63 -65 -27 -46 hvcurveto
          hintmask 11101100
          305 vmoveto
          -49 -46 34 52 45 44 36 51 51 44 -36 -45 -52 -46 -34 -49 hvcurveto
          endchar
        </CharString>
        <CharString name="ellipsis">
          26 -9 176 hstemhm
          57 176 29 176 30 176 hintmask 11010000
          468 79 -75 callsubr
          hintmask 11110000
          -206 hmoveto
          -104 callgsubr
          hintmask 11010000
          -205 hmoveto
          -101 callgsubr
        </CharString>
        <CharString name="emdash">
          22 216 96 hstem
          64 569 vstem
          64 216 rmoveto
          569 96 -569 hlineto
          endchar
        </CharString>
        <CharString name="endash">
          -132 215 97 hstem
          74 395 vstem
          74 215 rmoveto
          395 97 -395 hlineto
          endchar
        </CharString>
        <CharString name="equal">
          -88 166 123 126 123 hstem
          50 487 vstem
          50 538 -5 callsubr
          -487 -249 -5 callsubr
          endchar
        </CharString>
        <CharString name="eth">
          -78 -8 126 238 126 219 -20 72 -20 hstem
          44 148 214 148 vstem
          396 753 rmoveto
          -79 -52 -13 12 -24 21 -32 26 rlinecurve
          -123 -73 37 -31 10 -8 12 -10 11 -10 rlinecurve
          -88 -57 81 -78 86 56 21 -23 21 -23 20 -25 rlinecurve
          3 -15 -15 1 -16 hhcurveto
          -133 -113 -99 -146 -147 113 -98 141 169 87 117 161 134 -74 120 -84 96 hvcurveto
          83 55 rlineto
          -181 -557 rmoveto
          -66 -40 56 63 62 40 57 66 67 41 -57 -62 -63 -41 -56 -67 hvcurveto
          endchar
        </CharString>
        <CharString name="exclam">
          -360 -8 176 531 -20 hstem
          69 177 vstem
          69 -13 callgsubr
          -124 vlineto
          29 -360 rlineto
          118 hlineto
          30 360 rlineto
          124 vlineto
          -177 -619 -92 callgsubr
        </CharString>
        <CharString name="exclamdown">
          -357 3 callsubr
          176 hstem
          71 177 vstem
          248 hmoveto
          132 vlineto
          -30 360 rlineto
          -118 hlineto
          -29 -360 rlineto
          -132 vlineto
          627 vmoveto
          -101 callgsubr
        </CharString>
        <CharString name="f">
          -258 21 -21 321 121 143 130 hstem
          76 6 callgsubr
          227 508 rmoveto
          53 36 24 39 30 30 -13 -26 19 vhcurveto
          56 105 rlineto
          40 -41 -54 24 -56 hhcurveto
          -105 -105 -61 -139 hvcurveto
          -515 151 321 130 121 -130 vlineto
          endchar
        </CharString>
        <CharString name="fi">
          27 21 -7 callsubr
          hstem
          99 151 232 150 vstem
          632 -19 callsubr
          139 693 rmoveto
          90 -31 -85 79 -127 hhcurveto
          -167 -112 -126 -140 hvcurveto
          -29 callgsubr
          81 62 44 62 71 35 -51 -40 7 vhcurveto
          endchar
        </CharString>
        <CharString name="five">
          -79 -108 141 -15 -21 229 130 108 135 hstemhm
          84 146 162 156 hintmask 01111100
          506 599 rmoveto
          -422 -341 hlineto
          65 -70 rlineto
          25 46 44 13 36 hhcurveto
          62 55 -32 -67 hvcurveto
          hintmask 10111100
          -64 -51 -30 -58 -74 -78 78 0 vhcurveto
          hintmask 01111100
          -82 -114 rlineto
          hintmask 10111100
          -30 27 76 -75 134 hhcurveto
          146 116 100 138 146 -121 80 -126 -25 -22 -2 -7 -24 hvcurveto
          117 276 vlineto
          endchar
        </CharString>
        <CharString name="fl">
          27 -105 139 -13 -7 callsubr
          hstemhm
          99 151 231 150 hintmask 01111100
          631 559 rmoveto
          254 -125 49 -138 -175 -94 -126 -140 vhcurveto
          -29 callgsubr
          87 52 38 62 83 34 -53 -126 vhcurveto
          -416 vlineto
          hintmask 10111100
          -136 63 -102 137 18 34 3 5 15 vhcurveto
          -19 140 rlineto
          -8 -10 -13 -1 -11 hhcurveto
          -57 -7 49 38 hvcurveto
          endchar
        </CharString>
        <CharString name="florin">
          32 -202 132 386 108 195 138 hstem
          27 650 vstem
          224 316 rmoveto
          63 hlineto
          -43 -318 rlineto
          -47 -6 -24 -21 -33 hhcurveto
          -36 -25 15 26 -27 hvcurveto
          -66 -109 rlineto
          -44 48 63 -20 49 hhcurveto
          123 71 84 115 16 hvcurveto
          44 319 rlineto
          135 hlineto
          13 108 rlineto
          -133 hlineto
          18 129 rlineto
          44 8 28 22 29 hhcurveto
          23 27 -9 -26 16 hvcurveto
          72 111 rlineto
          45 -42 -58 17 -49 hhcurveto
          -94 -95 -61 -128 -17 hvcurveto
          -20 -144 rlineto
          -65 hlineto
          endchar
        </CharString>
        <CharString name="four">
          -87 28 103 451 96 hstem
          -69 115 448 112 vstem
          218 202 rmoveto
          237 397 rlineto
          -170 hlineto
          -249 -413 rlineto
          -119 281 -167 150 167 79 135 -79 122 -150 -122 vlineto
          endchar
        </CharString>
        <CharString name="fraction">
          -13 21 -21 698 -20 hstem
          -5 673 vstem
          668 698 rmoveto
          -172 hlineto
          -501 -698 rlineto
          171 hlineto
          endchar
        </CharString>
        <CharString name="g">
          -18 -212 128 106 131 275 119 -54 45 hstemhm
          45 149 236 151 hintmask 11101100
          54 -34 rmoveto
          -69 callsubr
          hintmask 11011100
          451 -151 -45 vlineto
          hintmask 11101100
          0 -59 54 -77 -149 -100 -118 -141 -154 103 -112 146 68 44 29 33 31 vhcurveto
          -51 callsubr
          129 131 rmoveto
          -78 -40 67 68 70 40 70 78 70 48 -63 -77 -76 -48 -59 -70 hvcurveto
          endchar
        </CharString>
        <CharString name="germandbls">
          -28 0 126 498 133 hstemhm
          70 156 185 153 -115 156 hintmask 11101000
          279 304 rmoveto
          3 34 11 0 10 hhcurveto
          67 48 -27 -68 -67 -51 -19 -72 hvcurveto
          -44 -126 62 hlineto
          173 88 87 125 74 -34 78 -84 27 hvcurveto
          hintmask 11110000
          56 46 21 53 57 vvcurveto
          81 -44 129 -199 -251 0 -228 -79 vhcurveto
          -450 156 463 vlineto
          99 24 62 82 60 19 -50 -35 -54 -39 -46 -93 -14 vhcurveto
          endchar
        </CharString>
        <CharString name="grave">
          -293 769 178 hstem
          50 282 vstem
          332 769 -95 callgsubr
        </CharString>
        <CharString name="greater">
          -74 97 595 hstem
          74 486 vstem
          560 -45 callsubr
          endchar
        </CharString>
        <CharString name="greaterequal">
          -54 -70 121 hstem
          72 487 vstem
          559 -45 callsubr
          -275 vmoveto
          -487 -121 487 hlineto
          endchar
        </CharString>
        <CharString name="guillemotleft">
          -71 4 callsubr
          48 498 vstem
          321 429 -63 callsubr
          343 184 -63 callsubr
          endchar
        </CharString>
        <CharString name="guillemotright">
          -71 4 callsubr
          58 498 vstem
          401 245 -63 callgsubr
          -107 -184 -63 callgsubr
          endchar
        </CharString>
        <CharString name="guilsinglleft">
          -296 4 callsubr
          48 273 vstem
          321 429 -63 callsubr
          endchar
        </CharString>
        <CharString name="guilsinglright">
          -296 4 callsubr
          58 273 vstem
          176 245 -63 callgsubr
          endchar
        </CharString>
        <CharString name="h">
          -36 21 -21 418 129 195 -11 callsubr
          203 150 vstem
          221 290 rmoveto
          -41 callsubr
          264 3 callgsubr
          150 vlineto
          endchar
        </CharString>
        <CharString name="hbar">
          -36 21 -21 418 129 27 87 -87 168 -27 callsubr
          203 150 hintmask 10011100
          221 290 rmoveto
          hintmask 11011100
          -41 callsubr
          hintmask 10011100
          96 110 vlineto
          hintmask 10101100
          87 -110 vlineto
          hintmask 10011100
          81 -150 vlineto
          hintmask 10101100
          -81 -47 vlineto
          hintmask 10011100
          -87 47 -574 150 vlineto
          endchar
        </CharString>
        <CharString name="hungarumlaut">
          -169 611 177 hstem
          16 494 vstem
          149 -25 callsubr
          -145 -82 callsubr
          355 hmoveto
          139 112 -145 65 -137 -37 callsubr
        </CharString>
        <CharString name="hyphen">
          -185 234 133 hstem
          67 356 vstem
          67 234 rmoveto
          356 133 -356 hlineto
          endchar
        </CharString>
        <CharString name="i">
          -38 callsubr
          63 176 hstemhm
          58 176 -163 150 hintmask 11101000
          221 -19 callsubr
          hintmask 11110000
          -13 669 -92 callgsubr
        </CharString>
        <CharString name="iacute">
          21 -21 538 -11 callsubr
          vstem
          -61 callsubr
          -2 -23 callgsubr
        </CharString>
        <CharString name="icircumflex">
          -38 callsubr
          93 158 hstem
          -31 callgsubr
          vstem
          145 682 rmoveto
          74 -71 rlineto
          113 hlineto
          -113 158 rlineto
          -147 hlineto
          -113 -158 rlineto
          113 hlineto
          -1 -73 -50 callgsubr
          endchar
        </CharString>
        <CharString name="idieresis">
          -38 callsubr
          99 -8 callsubr
          -24 148 -53 150 -52 148 hintmask 11101000
          -61 callsubr
          hintmask 11110100
          -245 153 -107 callgsubr
        </CharString>
        <CharString name="igrave">
          21 -21 538 -11 callsubr
          vstem
          -61 callsubr
          2 73 -95 callgsubr
        </CharString>
        <CharString name="ij">
          -76 -202 132 91 -21 538 -20 62 176 hstemhm
          59 176 -164 150 157 150 hintmask 11110110
          221 -19 callsubr
          307 -8 rmoveto
          -40 -16 -22 -22 -14 -26 14 33 -34 vhcurveto
          -70 -115 -36 callsubr
          550 -150 vlineto
          hintmask 11111010
          -319 130 -75 callsubr
          305 hmoveto
          -101 callgsubr
        </CharString>
        <CharString name="infinity">
          182 78 121 135 119 hstem
          66 131 462 131 vstem
          245 453 rmoveto
          -111 -68 -83 -104 -107 71 -81 112 82 49 42 51 48 hvcurveto
          -51 48 49 -42 82 hhcurveto
          113 70 81 107 104 -67 83 -112 -82 -54 -45 -54 -47 hvcurveto
          54 -47 -54 45 -82 hhcurveto
          3 -254 rmoveto
          -31 -20 31 38 36 19 30 29 32 41 -40 -31 29 hvcurveto
          -30 -28 -38 -34 -33 hhcurveto
          363 135 rmoveto
          30 18 -30 -36 -38 -19 -31 -32 -33 -38 34 30 -27 hvcurveto
          31 29 41 40 31 hhcurveto
          endchar
        </CharString>
        <CharString name="integral">
          -239 -162 127 765 129 hstemhm
          149 137 -122 136 hintmask 11100000
          423 838 rmoveto
          10 -18 -39 11 -34 hhcurveto
          -149 -34 -116 -153 -79 3 -75 4 -74 hvcurveto
          hintmask 11010000
          4 -76 4 -77 -85 vvcurveto
          -104 -19 -55 -54 -17 -19 5 12 -24 vhcurveto
          -21 -119 rlineto
          -12 21 51 -13 33 hhcurveto
          145 40 125 146 85 -3 81 -4 79 hvcurveto
          hintmask 11100000
          -3 76 -4 73 76 vvcurveto
          119 20 32 49 15 14 -3 -7 22 vhcurveto
          endchar
        </CharString>
        <CharString name="itilde">
          -38 callsubr
          90 -54 callgsubr
          -47 106 12 150 11 106 hintmask 11010100
          -61 callsubr
          -76 97 rmoveto
          hintmask 11100100
          -52 callgsubr
          hintmask 11100110
          -73 callgsubr
          endchar
        </CharString>
        <CharString name="j">
          -332 -212 140 611 -20 62 176 hstem
          122 150 vstem
          122 -44 callsubr
          561 -150 vlineto
          -13 130 -92 callgsubr
        </CharString>
        <CharString name="jcircumflex">
          -212 140 610 -20 93 158 hstem
          -31 callgsubr
          vstem
          71 -44 callsubr
          560 -150 vlineto
          -9 73 -96 callgsubr
        </CharString>
        <CharString name="k">
          -80 3 callsubr
          -20 223 -11 callsubr
          vstem
          -62 callgsubr
          endchar
        </CharString>
        <CharString name="kcedilla">
          -80 -1 callsubr
          3 callsubr
          -20 223 -20 -27 callsubr
          73 117 hintmask 01011110
          -62 callgsubr
          hintmask 10101111
          -211 hmoveto
          -115 hlineto
          -81 callgsubr
          hintmask 01011110
          -38 -86 rlineto
          hintmask 10101111
          -69 callgsubr
          endchar
        </CharString>
        <CharString name="kgreenlandic">
          -80 21 -21 538 -11 callsubr
          vstem
          372 321 rmoveto
          205 217 rlineto
          -189 hlineto
          -167 -177 rlineto
          177 -150 -538 -43 callsubr
          endchar
        </CharString>
        <CharString name="l">
          -262 -8 131 576 -65 callsubr
          endchar
        </CharString>
        <CharString name="ldot">
          -277 21 -21 232 176 334 -11 callsubr
          36 176 vstem
          221 hmoveto
          742 3 callgsubr
          vlineto
          186 320 -92 callgsubr
        </CharString>
        <CharString name="less">
          -74 97 595 hstem
          41 486 vstem
          41 -44 callgsubr
          endchar
        </CharString>
        <CharString name="lessequal">
          -54 -70 121 hstem
          62 487 vstem
          62 -44 callgsubr
          -533 vmoveto
          487 121 -487 hlineto
          endchar
        </CharString>
        <CharString name="logicalnot">
          142 327 118 hstem
          620 112 vstem
          63 445 rmoveto
          -118 557 -239 112 357 vlineto
          endchar
        </CharString>
        <CharString name="lozenge">
          -39 33 435 hstem
          84 468 vstem
          84 33 rmoveto
          468 435 -468 hlineto
          endchar
        </CharString>
        <CharString name="lslash">
          -312 21 -21 698 -20 hstem
          113 6 callgsubr
          36 197 rmoveto
          77 23 rlineto
          -220 151 263 vlineto
          70 20 rlineto
          136 vlineto
          -70 -21 rlineto
          300 -151 -343 vlineto
          -77 -22 rlineto
          endchar
        </CharString>
        <CharString name="m">
          308 21 -21 418 120 -120 129 -27 callsubr
          193 -46 callgsubr
          hintmask 10111100
          565 290 rmoveto
          90 57 38 54 58 33 -38 -86 vhcurveto
          -294 151 327 vlineto
          148 -90 72 -121 -67 -79 -35 -68 -43 vhcurveto
          52 -25 -57 51 -73 hhcurveto
          -52 -52 -27 -43 -38 hvcurveto
          hintmask 11011100
          61 -150 -37 callgsubr
          290 vlineto
          hintmask 10111100
          90 58 38 54 56 25 -38 -86 vhcurveto
          -294 151 vlineto
          endchar
        </CharString>
        <CharString name="macron">
          -233 571 116 hstem
          55 333 vstem
          388 687 rmoveto
          -333 -116 333 hlineto
          endchar
        </CharString>
        <CharString name="minus">
          -93 288 123 hstem
          48 486 vstem
          48 411 -8 callgsubr
        </CharString>
        <CharString name="mu">
          -28 -65 callgsubr
          hstemhm
          79 -46 callgsubr
          hintmask 10111000
          79 -185 rmoveto
          151 hlineto
          hintmask 01111000
          184 vlineto
          hintmask 10111000
          -5 18 21 -2 21 hhcurveto
          54 50 19 34 38 hvcurveto
          hintmask 01111000
          -45 151 538 -151 -290 vlineto
          hintmask 10111000
          -78 callgsubr
          vlineto
          endchar
        </CharString>
        <CharString name="multiply">
          -86 112 502 hstem
          48 493 vstem
          295 451 rmoveto
          -158 163 -88 -89 159 -161 -160 -163 88 -89 159 163 160 -163 86 89 -158 163 157 161 -86 89 rlineto
          endchar
        </CharString>
        <CharString name="n">
          -80 callgsubr
          endchar
        </CharString>
        <CharString name="nacute">
          -80 callgsubr
          158 -25 callsubr
          -155 -82 callsubr
          endchar
        </CharString>
        <CharString name="nine">
          -46 -108 134 119 133 206 131 hstem
          52 146 221 154 vstem
          72 -27 rmoveto
          -35 45 64 -46 106 hhcurveto
          149 137 103 264 188 -68 168 -205 -139 -109 -89 -148 -142 102 -91 127 56 48 20 23 34 hvcurveto
          -94 -10 -43 -68 -91 hhcurveto
          -65 -60 57 0 hvcurveto
          255 295 rmoveto
          -64 -50 -36 -58 -65 -34 49 57 57 41 43 63 58 45 -51 -55 vhcurveto
          endchar
        </CharString>
        <CharString name="notequal">
          -30 214 121 91 121 152 -20 hstem
          63 517 vstem
          63 426 rmoveto
          207 hlineto
          -41 -91 rlineto
          -166 -121 111 hlineto
          -70 -153 4 callgsubr
          70 153 rlineto
          265 121 -210 hlineto
          42 91 rlineto
          168 121 -113 hlineto
          70 152 rlineto
          -142 hlineto
          -70 -152 rlineto
          -262 hlineto
          endchar
        </CharString>
        <CharString name="ntilde">
          -36 21 -21 428 110 -110 119 -1 callgsubr
          71 150 -89 -18 callsubr
          -93 150 hintmask 1010110010000000
          -80 callsubr
          hintmask 1100110010000000
          60 -150 -37 callgsubr
          vlineto
          103 635 rmoveto
          hintmask 1011010100000000
          -98 callgsubr
          hintmask 1010101010000000
          -98 callsubr
          hintmask 1100110010000000
          -16 callgsubr
        </CharString>
        <CharString name="numbersign">
          72 21 -21 152 138 125 138 162 -20 hstem
          44 660 vstem
          677 415 rmoveto
          27 138 rlineto
          -105 hlineto
          29 162 rlineto
          -152 hlineto
          -27 -162 rlineto
          -90 hlineto
          27 162 rlineto
          -151 hlineto
          -27 -162 rlineto
          -103 hlineto
          -27 -138 rlineto
          107 hlineto
          -21 -125 rlineto
          -93 hlineto
          -27 -138 rlineto
          96 hlineto
          -26 -152 -22 callsubr
          26 152 rlineto
          91 hlineto
          -26 -152 rlineto
          150 hlineto
          26 152 rlineto
          111 hlineto
          27 138 rlineto
          -115 hlineto
          21 125 rlineto
          -149 hmoveto
          -9 -48 -5 -33 -8 -44 rrcurveto
          -91 hlineto
          22 125 rlineto
          endchar
        </CharString>
        <CharString name="o">
          -26 -99 callgsubr
          endchar
        </CharString>
        <CharString name="oacute">
          -27 -99 callgsubr
          57 619 -74 callgsubr
          -155 -82 callsubr
          endchar
        </CharString>
        <CharString name="ocircumflex">
          -18 callgsubr
          64 158 -102 callsubr
          -79 619 -96 callgsubr
        </CharString>
        <CharString name="odieresis">
          -18 callgsubr
          70 -8 callsubr
          40 151 -37 -45 callgsubr
          -37 151 hintmask 11110010
          -105 callgsubr
          hintmask 11101100
          -170 699 -107 callgsubr
        </CharString>
        <CharString name="oe">
          360 -8 124 -124 128 96 107 96 128 -124 124 hstemhm
          -24 callgsubr
          152 236 152 hintmask 01110111
          hintmask 10110111
          870 169 rmoveto
          -43 -41 -50 -10 -39 hhcurveto
          -64 -60 40 60 -10 hvcurveto
          392 80 hlineto
          162 -125 89 -143 -73 -74 -29 -55 -52 vhcurveto
          52 -51 -72 32 -84 hhcurveto
          -68 callgsubr
          hvcurveto
          hintmask 01110111
          -59 callsubr
          83 73 32 51 50 vhcurveto
          -54 51 73 -29 78 hhcurveto
          72 77 17 69 73 hvcurveto
          -630 42 -83 callgsubr
          hvcurveto
          -1 vlineto
          -6 vlineto
          -84 -3 -55 -58 -76 hhcurveto
          286 203 rmoveto
          hintmask 01101111
          65 9 60 35 57 hhcurveto
          53 50 -32 -68 7 hvcurveto
          endchar
        </CharString>
        <CharString name="ogonek">
          -460 -212 83 -83 204 21 -21 hstemhm
          18 80 hintmask 10110000
          71 -8 rmoveto
          0 -53 -63 -52 vvcurveto
          -51 34 -38 54 67 27 51 28 17 vhcurveto
          -51 33 rlineto
          0 -16 -29 -25 -19 -8 10 15 vhcurveto
          hintmask 01010000
          24 20 38 26 34 vhcurveto
          endchar
        </CharString>
        <CharString name="ograve">
          -27 -99 callgsubr
          81 619 -95 callgsubr
        </CharString>
        <CharString name="one">
          -272 21 -21 466 133 hstem
          164 150 vstem
          31 599 rmoveto
          -133 133 -466 150 599 vlineto
          endchar
        </CharString>
        <CharString name="onehalf">
          203 0 96 -83 -21 348 92 176 91 55 -20 hstemhm
          113 107 495 108 hintmask 10111100
          551 754 rmoveto
          hintmask 01111110
          -364 -762 rlineto
          116 hlineto
          364 762 rlineto
          -631 -55 rmoveto
          -91 77 -332 107 423 vlineto
          495 -402 rmoveto
          -24 -23 -27 -42 -43 vhcurveto
          hintmask 10111110
          -64 callgsubr
          hintmask 01111110
          23 16 -17 -26 hvcurveto
          endchar
        </CharString>
        <CharString name="onequarter">
          180 -4 callsubr
          429 91 56 -20 hstemhm
          113 107 461 91 hintmask 10011110
          562 754 rmoveto
          hintmask 01011110
          -17 callgsubr
          -641 -56 rmoveto
          -91 77 -331 107 422 vlineto
          hintmask 10011110
          461 -436 -15 callsubr
          hintmask 00111110
          -6 callgsubr
          hintmask 10011110
          -98 91 vlineto
          hintmask 00111110
          98 46 vlineto
          hintmask 10011110
          80 -46 84 vlineto
          endchar
        </CharString>
        <CharString name="onesuperior">
          -377 608 91 hstem
          118 107 vstem
          40 -13 callgsubr
          -91 78 -332 107 423 vlineto
          endchar
        </CharString>
        <CharString name="ordfeminine">
          -317 458 51 60 47 46 53 hstem
          51 79 85 74 vstem
          289 458 rmoveto
          162 vlineto
          71 -51 24 -58 -60 -43 -28 0 vhcurveto
          24 -44 rlineto
          0 35 19 37 21 17 -11 -32 vhcurveto
          -3 -51 vlineto
          -64 -45 -24 -54 -52 47 -31 46 28 29 12 22 14 hvcurveto
          -31 vlineto
          -5 96 rmoveto
          -28 -21 -17 -27 -18 -14 11 19 20 15 10 21 vhcurveto
          44 hlineto
          endchar
        </CharString>
        <CharString name="ordmasculine">
          -282 434 79 124 78 hstem
          49 96 103 96 vstem
          196 513 rmoveto
          -29 -22 24 37 37 22 26 29 30 22 -26 -37 -37 -22 -24 -30 hvcurveto
          -79 -55 callgsubr
          -55 callsubr
          endchar
        </CharString>
        <CharString name="oslash">
          -27 -8 129 -105 -21 424 128 -7 -20 hstemhm
          -24 callgsubr
          151 hintmask 01101100
          hintmask 10011100
          324 -8 rmoveto
          -58 callgsubr
          89 -40 78 -64 51 hvcurveto
          63 138 rlineto
          -142 hlineto
          -38 -85 rlineto
          hintmask 01101100
          5 -21 -21 2 -22 hhcurveto
          -68 callgsubr
          -94 45 -84 74 -50 hvcurveto
          -65 -142 4 callgsubr
          44 96 rlineto
          hintmask 10011100
          -2 15 15 -1 15 hhcurveto
          hintmask 10101100
          -133 277 rmoveto
          89 56 61 77 vhcurveto
          8 hlineto
          -113 -246 rlineto
          -18 25 -10 33 38 vvcurveto
          267 hmoveto
          -83 -50 -59 -71 -6 vhcurveto
          104 226 rlineto
          11 -22 6 -26 -30 vvcurveto
          endchar
        </CharString>
        <CharString name="otilde">
          -18 callgsubr
          -1 callgsubr
          40 151 -58 -18 callsubr
          -60 151 hintmask 11011001
          -105 callgsubr
          1 643 rmoveto
          hintmask 11101010
          -98 callgsubr
          hintmask 11010101
          -46 callsubr
        </CharString>
        <CharString name="p">
          -25 callgsubr
          71 150 253 151 hintmask 11011100
          2 callsubr
          167 -120 111 -125 -55 -56 -21 -48 -48 vhcurveto
          hintmask 11101100
          60 -150 -732 150 265 vlineto
          -55 42 58 -24 56 hhcurveto
          hintmask 11011100
          132 116 118 159 -72 callgsubr
        </CharString>
        <CharString name="paragraph">
          37 632 124 hstem
          260 130 98 133 vstem
          34 548 rmoveto
          -78 42 -122 164 vhcurveto
          20 -453 130 737 98 -737 133 861 -342 hlineto
          -177 -68 -103 -105 hvcurveto
          endchar
        </CharString>
        <CharString name="parenleft">
          -313 754 -20 hstem
          45 149 vstem
          194 313 rmoveto
          149 67 182 76 110 vhcurveto
          -162 hlineto
          -58 -82 -72 -186 -173 vvcurveto
          -173 72 -185 58 -82 vhcurveto
          162 hlineto
          -76 109 -67 183 148 vvcurveto
          endchar
        </CharString>
        <CharString name="parenright">
          -313 754 -20 hstem
          168 149 vstem
          168 313 rmoveto
          -148 -67 -183 -76 -109 vhcurveto
          162 hlineto
          58 82 72 185 173 vvcurveto
          173 -72 186 -58 82 vhcurveto
          -162 hlineto
          76 -110 67 -182 -149 vvcurveto
          endchar
        </CharString>
        <CharString name="partialdiff">
          -66 -8 139 184 130 144 127 hstem
          44 146 223 140 vstem
          154 553 rmoveto
          24 36 40 12 34 hhcurveto
          77 61 -59 -103 10 hvcurveto
          1 -12 0 -6 -12 vvcurveto
          32 -37 -53 16 -55 hhcurveto
          -109 -115 -66 -137 -144 103 -106 137 202 67 173 194 244 -131 113 -147 -64 -67 -21 -44 -61 hvcurveto
          315 -391 rmoveto
          -83 -3 -48 -46 -61 hhcurveto
          -61 -35 38 59 57 41 30 48 49 37 -19 -36 33 hvcurveto
          endchar
        </CharString>
        <CharString name="percent">
          144 -20 callgsubr
          64 106 83 106 99 106 83 106 hintmask 1011011111000000
          743 -71 callsubr
          hintmask 1011101111000000
          -55 callsubr
          hintmask 1011011111000000
          -394 500 -48 callsubr
          hvcurveto
          hintmask 1011101111000000
          -48 callgsubr
          hintmask 1011011111000000
          -91 -55 callgsubr
          hvcurveto
          hintmask 0111011111000000
          -55 callsubr
          endchar
        </CharString>
        <CharString name="period">
          -387 -8 176 hstem
          56 176 vstem
          56 80 -92 callgsubr
        </CharString>
        <CharString name="periodcentered">
          -377 230 176 hstem
          61 176 vstem
          61 318 -92 callgsubr
        </CharString>
        <CharString name="perthousand">
          442 -20 callgsubr
          45 106 83 106 99 106 83 106 54 106 83 106 hintmask 1011011111110000
          724 -71 callsubr
          hintmask 0000101100000000
          -55 callsubr
          hintmask 1011011111110000
          -394 500 -48 callsubr
          hvcurveto
          hintmask 0000101100000000
          -48 callgsubr
          hintmask 1011011111110000
          -91 -55 callgsubr
          -55 callsubr
          743 -318 -77 callgsubr
          hintmask 0100001000000000
          -55 callsubr
          endchar
        </CharString>
        <CharString name="pi">
          69 21 -21 407 131 hstem
          23 132 64 143 104 150 vstem
          168 322 rmoveto
          0 -13 21 22 vvcurveto
          23 18 19 46 vhcurveto
          -3 -121 -30 -175 -37 -111 rrcurveto
          142 hlineto
          37 97 29 190 5 120 rrcurveto
          104 -407 150 407 96 131 -496 hlineto
          -117 -76 -76 -89 -29 7 -29 14 -28 hvcurveto
          endchar
        </CharString>
        <CharString name="plus">
          -91 289 123 hstem
          223 138 vstem
          223 109 rmoveto
          138 180 175 123 -175 180 -138 -180 -175 -123 175 hlineto
          endchar
        </CharString>
        <CharString name="plusminus">
          -94 89 113 189 117 hstem
          221 138 vstem
          221 652 rmoveto
          -144 -173 -117 173 -139 138 139 174 117 -174 144 vlineto
          -311 -450 rmoveto
          -113 485 113 vlineto
          endchar
        </CharString>
        <CharString name="product">
          113 -191 -21 860 140 hstem
          83 162 298 162 vstem
          705 -212 rmoveto
          1000 -622 -1000 162 860 298 -860 vlineto
          endchar
        </CharString>
        <CharString name="q">
          -25 callgsubr
          41 151 252 151 hintmask 11011100
          41 269 rmoveto
          -168 126 -109 131 55 48 17 34 43 vhcurveto
          -237 151 vlineto
          hintmask 11101100
          732 -151 vlineto
          hintmask 11011100
          -60 vlineto
          45 -45 -45 24 -65 hhcurveto
          -125 -123 -110 -168 hvcurveto
          282 -149 rmoveto
          -68 -63 58 90 88 58 65 73 66 57 -63 -91 -87 -57 -60 -66 hvcurveto
          endchar
        </CharString>
        <CharString name="question">
          -151 -8 176 333 214 -132 132 hstemhm
          169 176 -166 152 -14 157 hintmask 10101000
          331 208 rmoveto
          60 vlineto
          38 10 12 23 22 vhcurveto
          hintmask 10100100
          60 60 50 39 84 vvcurveto
          124 -91 68 -118 -126 -89 -79 -135 -15 vhcurveto
          hintmask 11001000
          159 hlineto
          48 5 25 34 36 hhcurveto
          hintmask 10100100
          33 24 -29 -38 -19 -6 -16 -9 -11 hvcurveto
          -68 -70 rlineto
          hintmask 10101000
          -42 -43 -13 -16 -58 vvcurveto
          -75 vlineto
          -10 -128 rmoveto
          hintmask 10110000
          -101 callgsubr
        </CharString>
        <CharString name="questiondown">
          -149 -8 132 -132 214 333 176 hstemhm
          52 157 -28 176 -162 152 hintmask 10100100
          195 499 rmoveto
          -60 vlineto
          -38 -10 -12 -23 -22 vhcurveto
          hintmask 10110000
          -60 -60 -50 -39 -84 vvcurveto
          -124 91 -68 118 126 89 79 135 15 vhcurveto
          hintmask 01100100
          -159 hlineto
          -48 -5 -25 -34 -36 hhcurveto
          hintmask 10110000
          -33 -24 29 38 19 6 16 9 11 hvcurveto
          68 70 rlineto
          hintmask 10100100
          42 43 13 16 58 vvcurveto
          75 vlineto
          10 128 rmoveto
          hintmask 10101000
          -93 callgsubr
          -93 callsubr
          vhcurveto
          endchar
        </CharString>
        <CharString name="quotedbl">
          -242 431 268 hstem
          71 119 53 -20 callsubr
          172 -268 -19 callgsubr
          endchar
        </CharString>
        <CharString name="quotedblbase">
          -250 -96 254 hstemhm
          39 1 callsubr
          hintmask 11000000
          -49 callgsubr
          hintmask 11100000
          267 hmoveto
          -43 callgsubr
        </CharString>
        <CharString name="quotedblleft">
          -250 449 254 -107 107 0 -20 hstemhm
          36 1 callsubr
          hintmask 00110000
          -9 callsubr
          hintmask 10010000
          -29 callsubr
          48 35 34 48 vhcurveto
          hintmask 01010000
          2 callgsubr
          vhcurveto
          230 107 rmoveto
          hintmask 00111000
          -82 hlineto
          -73 -106 rlineto
          hintmask 10011000
          -29 callsubr
          48 35 34 48 vhcurveto
          hintmask 01011000
          2 callgsubr
          vhcurveto
          endchar
        </CharString>
        <CharString name="quotedblright">
          -250 446 254 0 -20 hstemhm
          39 1 callsubr
          hintmask 01100000
          hintmask 10100000
          -50 callsubr
          hintmask 10110000
          267 hmoveto
          -43 callgsubr
        </CharString>
        <CharString name="quoteleft">
          -435 596 107 0 -20 hstemhm
          36 165 hintmask 01100000
          -9 callsubr
          -29 callsubr
          vhcurveto
          hintmask 10100000
          48 35 34 48 2 callgsubr
          hvcurveto
          endchar
        </CharString>
        <CharString name="quoteright">
          -435 700 -20 hstem
          39 165 vstem
          -50 callsubr
          endchar
        </CharString>
        <CharString name="quotesinglbase">
          -435 -96 254 hstem
          39 165 vstem
          -49 callgsubr
          endchar
        </CharString>
        <CharString name="quotesingle">
          -414 431 268 hstem
          71 -20 callsubr
          endchar
        </CharString>
        <CharString name="r">
          -14 callgsubr
          -27 callsubr
          hintmask 10110000
          -15 callgsubr
          hintmask 11010000
          -9 callgsubr
          hintmask 10110000
          -14 callsubr
          endchar
        </CharString>
        <CharString name="radical">
          47 296 127 334 -20 hstem
          24 696 vstem
          24 296 rmoveto
          99 hlineto
          144 -452 rlineto
          160 hlineto
          293 913 rlineto
          -153 hlineto
          -219 -690 -111 356 rlineto
          -213 hlineto
          endchar
        </CharString>
        <CharString name="rcaron">
          -14 callgsubr
          64 158 -27 callsubr
          hintmask 10111000
          -15 callgsubr
          hintmask 11011000
          -9 callgsubr
          hintmask 10111000
          -14 callsubr
          -376 363 -97 callsubr
        </CharString>
        <CharString name="rcommaaccent">
          -264 -250 195 76 -21 406 133 -133 142 -27 callsubr
          hintmask 11011000
          16 -17 callsubr
          301 603 rmoveto
          -64 -2 -61 -39 -36 -40 rrcurveto
          hintmask 11101000
          72 -150 -539 150 233 vlineto
          hintmask 11011000
          -14 callsubr
          endchar
        </CharString>
        <CharString name="registered">
          149 -12 74 212 90 101 90 81 75 hstem
          51 74 135 110 120 109 100 -66 callgsubr
          -76 -30 -71 -50 -52 vhcurveto
          -101 141 rlineto
          46 20 35 38 66 vvcurveto
          96 -49 43 -129 vhcurveto
          -161 -406 110 125 44 hlineto
          87 -125 rlineto
          116 hlineto
          -54 -52 -72 -33 -82 hhcurveto
          -36 callgsubr
          hvcurveto
          -209 66 rmoveto
          -34 -12 -18 -55 vhcurveto
          -53 101 55 hlineto
          48 17 -12 -37 hvcurveto
          endchar
        </CharString>
        <CharString name="ring">
          -261 596 72 70 72 hstem
          100 72 70 72 vstem
          100 703 -62 callsubr
        </CharString>
        <CharString name="s">
          -7 callgsubr
          -88 callgsubr
          endchar
        </CharString>
        <CharString name="scaron">
          -7 callgsubr
          64 158 -88 callgsubr
          -418 597 -97 callsubr
        </CharString>
        <CharString name="section">
          -53 -132 122 627 122 hstemhm
          50 133 -92 146 159 144 -95 133 hintmask 11100100
          hintmask 11010100
          237 564 rmoveto
          29 25 24 44 46 45 -16 -48 63 vhcurveto
          75 107 rlineto
          55 -75 -63 24 -89 hhcurveto
          -125 -92 -74 -111 -40 17 -37 37 -26 hvcurveto
          hintmask 11101000
          -63 -27 -32 -56 -54 vvcurveto
          -118 95 -43 126 -37 vhcurveto
          90 -26 35 -19 -33 vvcurveto
          -33 -29 -15 -48 -63 -56 35 53 -63 vhcurveto
          -84 -101 rlineto
          -72 79 92 -37 92 hhcurveto
          141 83 82 93 37 -18 47 -46 31 hvcurveto
          hintmask 11100100
          75 31 27 57 55 vvcurveto
          106 -72 43 -152 37 vhcurveto
          hintmask 11010100
          -95 24 -22 16 37 vvcurveto
          hintmask 11100100
          -54 -246 rmoveto
          36 39 18 40 65 118 -19 -62 -37 -40 -23 -50 -100 -72 37 50 vhcurveto
          endchar
        </CharString>
        <CharString name="semicolon">
          -360 -101 268 88 176 hstemhm
          67 176 -176 186 hintmask 11100000
          64 -101 rmoveto
          hintmask 11010000
          98 hlineto
          62 103 rlineto
          15 26 14 24 27 vvcurveto
          51 -43 37 -52 -48 -43 -37 -51 -28 14 -25 22 -16 vhcurveto
          hintmask 11100000
          -36 333 -92 callgsubr
        </CharString>
        <CharString name="seven">
          -96 465 134 hstem
          47 146 vstem
          47 375 rmoveto
          146 90 176 hlineto
          -270 -565 rlineto
          170 hlineto
          283 581 rlineto
          118 -505 vlineto
          endchar
        </CharString>
        <CharString name="six">
          -45 -8 131 206 132 120 134 hstem
          56 154 224 143 vstem
          557 633 rmoveto
          36 -45 -64 46 -106 hhcurveto
          -149 -137 -103 -264 -188 68 -168 205 139 109 89 147 143 -102 90 -127 -56 -48 -20 -22 -34 hvcurveto
          94 10 43 68 91 hhcurveto
          72 57 -58 0 hvcurveto
          -259 -295 rmoveto
          64 50 37 58 66 36 -49 -57 -58 -44 -42 -63 -58 -45 50 55 vhcurveto
          endchar
        </CharString>
        <CharString name="slash">
          -61 -112 917 hstem
          27 561 vstem
          446 805 rmoveto
          -419 -917 4 callgsubr
          420 917 rlineto
          endchar
        </CharString>
        <CharString name="space">
          -411 endchar
        </CharString>
        <CharString name="sterling">
          -47 0 133 140 126 203 137 hstem
          138 -10 callgsubr
          295 508 rmoveto
          71 40 23 40 34 36 -28 -51 22 vhcurveto
          111 90 rlineto
          80 -46 -71 46 -93 hhcurveto
          -125 -105 -61 -176 hvcurveto
          -103 -80 -126 80 -140 -76 -133 511 133 -278 140 156 126 -156 vlineto
          endchar
        </CharString>
        <CharString name="summation">
          35 -195 140 698 140 hstem
          38 631 vstem
          669 -195 rmoveto
          140 -419 vlineto
          256 352 -238 346 rlineto
          382 140 -599 -105 hlineto
          268 -382 -281 -387 rlineto
          -104 vlineto
          endchar
        </CharString>
        <CharString name="t">
          -265 -8 131 298 117 161 -65 callsubr
          232 130 117 -130 vlineto
          endchar
        </CharString>
        <CharString name="thorn">
          -28 callsubr
          126 195 -11 callsubr
          253 6 callgsubr
          2 callsubr
          180 -130 98 -130 -51 -51 -16 -38 -42 vhcurveto
          249 -150 -936 150 237 vlineto
          -34 44 48 -17 54 hhcurveto
          132 126 109 168 -72 callgsubr
        </CharString>
        <CharString name="three">
          -84 -108 136 438 133 hstem
          385 6 callgsubr
          294 466 rmoveto
          -134 -158 rlineto
          -115 vlineto
          14 44 30 5 19 hhcurveto
          86 46 -40 -51 -67 -51 -26 -57 -49 -67 27 43 -61 hvcurveto
          -64 -124 rlineto
          -55 80 86 -27 74 hhcurveto
          142 118 83 152 94 -60 88 -116 19 hvcurveto
          143 163 rlineto
          108 -428 -133 vlineto
          endchar
        </CharString>
        <CharString name="threequarters">
          226 -4 callsubr
          88 94 247 92 55 -20 hstemhm
          64 272 -89 108 373 91 hintmask 1001110010000000
          607 754 rmoveto
          hintmask 0101110110000000
          -17 callgsubr
          -536 -147 -70 callsubr
          hintmask 1001111010000000
          0 callgsubr
          664 -345 -15 callsubr
          hintmask 0011110010000000
          -6 callgsubr
          hintmask 1001110010000000
          -98 91 vlineto
          hintmask 0011110010000000
          98 46 vlineto
          hintmask 1001110010000000
          80 -46 84 vlineto
          endchar
        </CharString>
        <CharString name="threesuperior">
          -239 266 94 247 92 hstemhm
          76 272 -89 108 hintmask 11010000
          198 607 -70 callsubr
          hintmask 11100000
          0 callgsubr
          endchar
        </CharString>
        <CharString name="tilde">
          -90 608 -54 callgsubr
          107 -18 callsubr
          hintmask 01110000
          299 635 rmoveto
          hintmask 10110000
          -98 callgsubr
          hintmask 01110000
          -98 callsubr
          -16 callgsubr
        </CharString>
        <CharString name="trademark">
          315 596 103 hstem
          179 110 142 110 257 110 vstem
          289 596 rmoveto
          116 103 -342 -103 116 -319 110 hlineto
          346 33 rmoveto
          69 hlineto
          94 191 rlineto
          -224 110 422 -139 vlineto
          -99 -210 -99 210 rlineto
          -140 -422 110 224 hlineto
          endchar
        </CharString>
        <CharString name="two">
          -70 0 140 335 134 hstem
          374 -13 callsubr
          374 428 rmoveto
          -33 -15 -19 -102 -89 vhcurveto
          -199 -171 rlineto
          -116 493 140 -276 vlineto
          78 64 rlineto
          140 114 37 48 71 vvcurveto
          106 -87 66 -140 -105 -97 -56 -98 -65 vhcurveto
          125 -74 rlineto
          63 42 48 31 53 hhcurveto
          48 22 -15 -32 hvcurveto
          endchar
        </CharString>
        <CharString name="twosuperior">
          -236 283 96 244 92 hstem
          255 108 vstem
          255 580 rmoveto
          -24 -23 -27 -42 -43 vhcurveto
          -64 callgsubr
          23 16 -17 -26 hvcurveto
          endchar
        </CharString>
        <CharString name="u">
          -96 callsubr
          endchar
        </CharString>
        <CharString name="uacute">
          -96 callsubr
          -39 -23 callgsubr
        </CharString>
        <CharString name="ucircumflex">
          -35 -65 callgsubr
          93 158 hstemhm
          65 -46 callgsubr
          hintmask 10111100
          -95 callsubr
          hintmask 01111100
          -71 -78 callsubr
          -182 73 -96 callgsubr
        </CharString>
        <CharString name="udieresis">
          -35 -65 callgsubr
          99 -8 callsubr
          65 151 -73 -45 callgsubr
          -66 151 hintmask 10111001
          -95 callsubr
          hintmask 01110101
          -71 -78 callsubr
          -275 153 rmoveto
          -107 callsubr
          hintmask 10111010
          193 hmoveto
          -107 callsubr
          endchar
        </CharString>
        <CharString name="ugrave">
          -96 callsubr
          -15 73 -95 callgsubr
        </CharString>
        <CharString name="underscore">
          45 -132 87 hstem
          67 586 vstem
          67 -132 rmoveto
          586 87 -586 hlineto
          endchar
        </CharString>
        <CharString name="v">
          -89 3 callsubr
          -20 hstem
          3 580 vstem
          216 hmoveto
          154 hlineto
          213 539 rlineto
          -156 hlineto
          -134 -339 -134 339 rlineto
          -156 hlineto
          endchar
        </CharString>
        <CharString name="w">
          227 0 213 -192 -21 538 -20 hstemhm
          13 876 hintmask 01110000
          351 hmoveto
          100 293 99 -293 rlineto
          156 hlineto
          183 538 rlineto
          -156 hlineto
          hintmask 10110000
          -105 -325 -105 325 rlineto
          -145 hlineto
          -105 -325 -105 325 rlineto
          -155 hlineto
          183 -538 rlineto
          endchar
        </CharString>
        <CharString name="x">
          -90 -38 callsubr
          hstem
          13 559 vstem
          202 538 rmoveto
          -179 hlineto
          178 -264 -188 -274 rlineto
          173 hlineto
          102 148 105 -148 rlineto
          179 hlineto
          -192 275 185 263 rlineto
          -176 hlineto
          -95 -144 rlineto
          endchar
        </CharString>
        <CharString name="y">
          -22 -91 callgsubr
          endchar
        </CharString>
        <CharString name="yacute">
          -85 -91 callgsubr
          -81 527 -74 callgsubr
          -155 -82 callsubr
          endchar
        </CharString>
        <CharString name="ydieresis">
          -85 -35 callsubr
          98 -8 callsubr
          71 151 -98 -45 callgsubr
          -41 151 hintmask 1101110010000000
          -92 callsubr
          hintmask 1110110010000000
          -39 callgsubr
          hintmask 1101110010000000
          54 52 18 26 37 hvcurveto
          hintmask 1101101100000000
          -307 607 -107 callgsubr
        </CharString>
        <CharString name="yen">
          66 0 224 -96 96 55 96 323 -20 hstemhm
          286 163 hintmask 10111000
          108 224 rmoveto
          hintmask 01111000
          -96 178 vlineto
          hintmask 10111000
          -128 163 vlineto
          hintmask 01111000
          128 176 vlineto
          hintmask 10111000
          96 -176 55 176 96 -110 vlineto
          194 323 rlineto
          -169 hlineto
          -171 -285 -165 285 rlineto
          -170 hlineto
          188 -323 rlineto
          -114 -96 178 -55 hlineto
          endchar
        </CharString>
        <CharString name="z">
          -125 -4 callgsubr
          -76 callgsubr
          endchar
        </CharString>
        <CharString name="zcaron">
          -122 -4 callgsubr
          74 158 -76 callgsubr
          4 457 -97 callsubr
        </CharString>
        <CharString name="zero">
          15 -8 128 366 129 hstem
          56 153 272 153 vstem
          209 303 rmoveto
          111 53 72 83 83 53 -72 -111 -111 -53 -72 -83 -83 -53 72 111 vhcurveto
          -153 hmoveto
          -189 114 -122 175 175 114 122 189 189 -114 123 -175 -175 -114 -123 -189 vhcurveto
          endchar
        </CharString>
      <CharString index="0">
        rmoveto
        -107 callsubr
        193 hmoveto
        -107 callsubr
        endchar
      </CharString>
      <CharString index="1">
        413 579 rmoveto
        118 90 -101 -125 -123 -90 -101 -118 -117 -90 101 123 -47 callsubr
        hvcurveto
        -586 vmoveto
        -59 callgsubr
        -87 callsubr
        -206 161 -155 206 hvcurveto
        return
      </CharString>
      <CharString index="2">
        324 120 -83 callgsubr
        -88 -56 -61 -78 hvcurveto
        -128 vmoveto
        -58 callgsubr
        154 -120 124 -165 -68 callgsubr
        -59 callsubr
        hvcurveto
        return
      </CharString>
      <CharString index="3">
        -93 callsubr
        -93 callgsubr
        vhcurveto
        return
      </CharString>
      <CharString index="4">
        rmoveto
        83 81 84 -81 rlineto
        123 hlineto
        -113 158 rlineto
        -187 hlineto
        -113 -158 rlineto
        return
      </CharString>
      <CharString index="5">
        -45 vlineto
        36 -40 -48 18 -53 hhcurveto
        -129 -133 -98 -180 hvcurveto
        282 -150 rmoveto
        -68 -63 58 91 88 58 65 73 66 57 -63 -92 -87 -57 -60 -66 hvcurveto
        return
      </CharString>
      <CharString index="6">
        -104 callgsubr
        endchar
      </CharString>
      <CharString index="7">
        -72 -44 -25 -63 -58 vvcurveto
        -141 103 -77 178 106 83 33 24 44 vhcurveto
        -41 139 rlineto
        -29 -44 -75 -26 -62 hhcurveto
        -67 -65 18 62 84 93 2 77 hvcurveto
        110 134 -112 hlineto
        return
      </CharString>
      <CharString index="8">
        -40 callsubr
        -102 callsubr
        return
      </CharString>
      <CharString index="9">
        -52 callgsubr
        -97 callgsubr
        return
      </CharString>
      <CharString index="10">
        66 50 58 103 hvcurveto
        -106 hlineto
        -44 1 -19 -8 -12 hhcurveto
        -13 -24 16 12 -20 hvcurveto
        return
      </CharString>
      <CharString index="11">
        -103 callgsubr
        endchar
      </CharString>
      <CharString index="12">
        rmoveto
        -128 178 -154 -66 139 -112 rlineto
        endchar
      </CharString>
      <CharString index="13">
        73 106 rlineto
        13 20 9 21 25 vvcurveto
        53 -38 29 -44 -48 -35 -34 -48 -26 10 -24 23 -15 vhcurveto
        -45 -107 rlineto
        return
      </CharString>
      <CharString index="14">
        49 -39 39 -49 -49 -39 -39 -49 return
      </CharString>
      <CharString index="15">
        rmoveto
        -101 callgsubr
      </CharString>
      <CharString index="16">
        -35 callsubr
        hstemhm
        71 -46 callgsubr
        hintmask 11011100
        -92 callsubr
        hintmask 11101100
        -39 callgsubr
        hintmask 11011100
        54 52 18 26 37 hvcurveto
        return
      </CharString>
      <CharString index="17">
        rmoveto
        -81 -53 44 133 hvcurveto
        386 -156 -405 vlineto
        -198 126 -104 150 102 64 72 0 vhcurveto
        return
      </CharString>
      <CharString index="18">
        -76 callsubr
        44 269 -81 callsubr
        return
      </CharString>
      <CharString index="19">
        hstem
        61 140 134 141 vstem
        476 172 rmoveto
        105 -89 27 -81 25 vhcurveto
        -70 22 -35 11 31 vvcurveto
        26 26 12 45 36 51 -13 -35 51 vhcurveto
        56 100 rlineto
        44 -65 -66 20 -67 hhcurveto
        -111 -96 -64 -108 -99 103 -38 69 -22 hvcurveto
        72 -23 30 -19 -27 vvcurveto
        -24 -23 -17 -40 -44 -72 16 49 -63 vhcurveto
        -66 -94 rlineto
        -59 73 94 -26 75 hhcurveto
        116 91 64 116 hvcurveto
        return
      </CharString>
      <CharString index="20">
        -1 -8 127 -119 119 302 -51 callgsubr
        return
      </CharString>
      <CharString index="21">
        -33 callsubr
        hintmask 11101000
        -66 callsubr
        hintmask 11110000
        -100 callgsubr
        hintmask 11101000
        -77 callsubr
        return
      </CharString>
      <CharString index="22">
        586 325 -106 callsubr
        return
      </CharString>
      <CharString index="23">
        5 callsubr
        126 -106 131 50 53 17 35 43 vhcurveto
        return
      </CharString>
      <CharString index="24">
        rmoveto
        -77 -56 61 88 89 56 61 77 78 56 -61 -89 return
      </CharString>
      <CharString index="25">
        hstem
        169 -13 callsubr
        -85 callsubr
        return
      </CharString>
      <CharString index="26">
        -41 -78 rlineto
        6 13 11 3 10 hhcurveto
        25 17 -17 -19 -15 -13 -15 -20 -12 -14 5 14 -16 hvcurveto
        return
      </CharString>
      <CharString index="27">
        -36 21 -21 428 110 -110 119 -27 callsubr
        203 150 hintmask 10111000
        -80 callsubr
        hintmask 11011000
        60 -150 -37 callgsubr
        vlineto
        return
      </CharString>
      <CharString index="28">
        156 164 284 -164 157 405 return
      </CharString>
      <CharString index="29">
        -89 -57 -38 -54 -58 -33 38 86 vhcurveto
        293 -151 return
      </CharString>
      <CharString index="30">
        -48 callsubr
        -48 callgsubr
        -91 -55 callgsubr
        hvcurveto
        return
      </CharString>
      <CharString index="31">
        hstem
        41 468 vstem
        69 231 rmoveto
        66 hlineto
        -94 -107 rlineto
        -124 468 125 -276 vlineto
        94 106 rlineto
        132 81 -61 hlineto
        96 108 rlineto
        117 -434 -124 235 vlineto
        -89 -101 rlineto
        -137 hlineto
        return
      </CharString>
      <CharString index="32">
        rmoveto
        81 53 -49 -133 hvcurveto
        -389 156 418 vlineto
        198 -126 99 -150 -102 -64 -72 0 vhcurveto
        return
      </CharString>
      <CharString index="33">
        rmoveto
        139 112 return
      </CharString>
      <CharString index="34">
        -97 callgsubr
        hintmask 11011100
        -98 callsubr
        hintmask 11010100
        -52 callsubr
        return
      </CharString>
      <CharString index="35">
        hvcurveto
        -282 -149 rmoveto
        -66 -58 60 87 91 58 63 66 72 59 -65 -88 -90 -64 -58 -67 hvcurveto
        endchar
      </CharString>
      <CharString index="36">
        -90 callgsubr
        hintmask 01111000
        -53 callsubr
        hintmask 10111000
        -27 callgsubr
        return
      </CharString>
      <CharString index="37">
        769 -103 callgsubr
        return
      </CharString>
      <CharString index="38">
        -24 38 32 -8 26 hhcurveto
        89 45 54 53 43 -26 20 -39 13 hvcurveto
        return
      </CharString>
      <CharString index="39">
        -164 -120 -124 -154 return
      </CharString>
      <CharString index="40">
        -57 callgsubr
        -82 callgsubr
        return
      </CharString>
      <CharString index="41">
        74 vstem
        773 350 rmoveto
        199 -161 162 -199 -202 -160 -165 -198 -197 158 -163 202 203 159 165 197 vhcurveto
        -74 hmoveto
        return
      </CharString>
      <CharString index="42">
        -8 129 -121 121 417 -20 return
      </CharString>
      <CharString index="43">
        -122 -126 rlineto
        -77 307 96 -153 vlineto
        62 65 rlineto
        60 63 19 33 43 vvcurveto
        85 -70 47 -76 -75 -44 -38 -61 -39 vhcurveto
        87 -52 rlineto
        30 19 24 29 27 hhcurveto
        return
      </CharString>
      <CharString index="44">
        rmoveto
        -118 -185 -22 callsubr
        122 185 -122 184 rlineto
        -151 hlineto
        return
      </CharString>
      <CharString index="45">
        372 321 rmoveto
        205 218 rlineto
        -189 hlineto
        -167 -178 rlineto
        381 3 callgsubr
        -43 callsubr
        return
      </CharString>
      <CharString index="46">
        -53 callgsubr
        hstemhm
        83 -32 callgsubr
        hintmask 10111000
        return
      </CharString>
      <CharString index="47">
        -57 callsubr
        139 return
      </CharString>
      <CharString index="48">
        206 161 155 206 return
      </CharString>
      <CharString index="49">
        165 120 123 154 return
      </CharString>
      <CharString index="50">
        -176 0 134 431 134 return
      </CharString>
      <CharString index="51">
        151 -7 136 450 136 return
      </CharString>
      <CharString index="52">
        vmoveto
        86 62 63 77 78 -62 63 -86 return
      </CharString>
      <CharString index="53">
        161 -158 161 hstemhm
        return
      </CharString>
      <CharString index="54">
        97 -8 144 -115 -22 callgsubr
        return
      </CharString>
      <CharString index="55">
        -16 27 19 -11 31 hhcurveto
        return
      </CharString>
      <CharString index="56">
        117 -117 126 return
      </CharString>
      <CharString index="57">
        rmoveto
        -37 callgsubr
        538 vlineto
        return
      </CharString>
      <CharString index="58">
        109 -96 -41 callgsubr
        return
      </CharString>
      <CharString index="59">
        24 18 -21 -30 -30 -18 -19 -24 hvcurveto
        return
      </CharString>
      <CharString index="60">
        90 58 38 54 57 34 -38 -86 vhcurveto
        return
      </CharString>
      <CharString index="61">
        151 202 151 return
      </CharString>
      <CharString index="62">
        148 45 148 return
      </CharString>
      <CharString index="63">
        326 rmoveto
        486 -229 rlineto
        148 vlineto
        -321 152 321 148 rlineto
        147 vlineto
        -486 -229 rlineto
        return
      </CharString>
      <CharString index="64">
        -94 callgsubr
        endchar
      </CharString>
      <CharString index="65">
        769 -74 callgsubr
        -155 -82 callsubr
        return
      </CharString>
      <CharString index="66">
        rmoveto
        -94 callgsubr
        return
      </CharString>
      <CharString index="67">
        22 -35 -25 14 -41 hhcurveto
        -88 -67 -78 -136 hvcurveto
        141 hlineto
        59 -1 25 10 16 hhcurveto
        17 32 -22 -15 26 hvcurveto
        return
      </CharString>
      <CharString index="68">
        218 -151 -266 vlineto
        -186 105 -46 112 vhcurveto
        return
      </CharString>
      <CharString index="69">
        -53 -8 123 302 130 return
      </CharString>
      <CharString index="70">
        -538 150 return
      </CharString>
      <CharString index="71">
        -161 -125 130 156 157 128 131 160 157 129 -129 -157 return
      </CharString>
      <CharString index="72">
        -38 callgsubr
        1 callgsubr
        return
      </CharString>
      <CharString index="73">
        -699 156 return
      </CharString>
      <CharString index="74">
        -21 callgsubr
        252 159 vstem
        return
      </CharString>
      <CharString index="75">
        156 286 156 return
      </CharString>
      <CharString index="76">
        71 150 return
      </CharString>
      <CharString index="77">
        hstemhm
        44 151 252 151 return
      </CharString>
      <CharString index="78">
        -58 -63 -108 63 -430 151 430 130 108 -130 65 vlineto
        return
      </CharString>
      <CharString index="79">
        rmoveto
        -47 callgsubr
        return
      </CharString>
      <CharString index="80">
        -122 -64 -68 -88 vhcurveto
        return
      </CharString>
      <CharString index="81">
        44 269 -84 callgsubr
        return
      </CharString>
      <CharString index="82">
        -28 callsubr
        -51 callgsubr
        hstemhm
        return
      </CharString>
      <CharString index="83">
        40 151 267 return
      </CharString>
      <CharString index="84">
        73 -74 callgsubr
        -155 -82 callsubr
        endchar
      </CharString>
      <CharString index="85">
        -21 699 -20 return
      </CharString>
      <CharString index="86">
        hstem
        86 156 return
      </CharString>
      <CharString index="87">
        -8 91 -62 -21 183 90 128 91 100 90 17 -20 hstemhm
        return
      </CharString>
      <CharString index="88">
        rmoveto
        119 268 -119 hlineto
        return
      </CharString>
      <CharString index="89">
        -27 -40 callsubr
        return
      </CharString>
      <CharString index="90">
        -364 -762 rlineto
        115 hlineto
        364 762 rlineto
        return
      </CharString>
      <CharString index="91">
        -52 callsubr
        endchar
      </CharString>
      <CharString index="92">
        382 547 rmoveto
        -64 -2 -61 -38 -36 -40 rrcurveto
        return
      </CharString>
      <CharString index="93">
        -264 21 -21 406 132 -132 141 return
      </CharString>
      <CharString index="94">
        699 rmoveto
        return
      </CharString>
      <CharString index="95">
        239 hlineto
        279 116 148 202 return
      </CharString>
      <CharString index="96">
        87 hlineto
        163 71 -81 -132 hvcurveto
        endchar
      </CharString>
      <CharString index="97">
        157 vstem
        return
      </CharString>
      <CharString index="98">
        71 -150 -37 callgsubr
        233 vlineto
        return
      </CharString>
      <CharString index="99">
        rmoveto
        -123 486 123 vlineto
        endchar
      </CharString>
      <CharString index="100">
        -155 -8 114 325 116 return
      </CharString>
      <CharString index="101">
        -147 -247 rlineto
        -77 179 vlineto
        return
      </CharString>
      <CharString index="102">
        -139 -80 -73 -142 vhcurveto
        -99 return
      </CharString>
      <CharString index="103">
        0 125 106 81 101 124 return
      </CharString>
      <CharString index="104">
        219 -136 130 -251 return
      </CharString>
      <CharString index="105">
        -37 -8 138 448 137 return
      </CharString>
      <CharString index="106">
        61 -54 callgsubr
        return
      </CharString>
      <CharString index="107">
        79 91 rlineto
        73 -272 -92 vlineto
        return
      </CharString>
      <CharString index="108">
        hstem
        43 147 vstem
        return
      </CharString>
      <CharString index="109">
        26 -11 24 -22 15 return
      </CharString>
      <CharString index="110">
        -150 -742 return
      </CharString>
      <CharString index="111">
        rlineto
        141 hlineto
        return
      </CharString>
      <CharString index="112">
        46 160 return
      </CharString>
      <CharString index="113">
        151 vstem
        return
      </CharString>
</ttFont>
